<svg width="32" height="32" viewBox="0 0 32 32" fill="none" xmlns="http://www.w3.org/2000/svg">
<g clip-path="url(#clip0)">
<path d="M7.72351 16.878L22.5244 31.638C23.0094 32.1213 23.7945 32.1205 24.2786 31.6355C24.7624 31.1506 24.7611 30.365 24.2761 29.8813L10.3562 15.9998L24.2766 2.11838C24.7616 1.63463 24.7628 0.849573 24.2791 0.364574C24.0364 0.12145 23.7185 -0.000112453 23.4006 -0.000112425C23.0834 -0.000112397 22.7668 0.120638 22.5245 0.362074L7.72351 15.1217C7.48994 15.3541 7.35888 15.6703 7.35888 15.9998C7.35888 16.3293 7.49032 16.6452 7.72351 16.878Z" fill="#358935"/>
</g>
<defs>
<clipPath id="clip0">
<rect x="32" y="32" width="32" height="32" transform="rotate(180 32 32)" fill="white"/>
</clipPath>
</defs>
</svg>
