<svg xmlns="http://www.w3.org/2000/svg" viewBox="0 0 143.85 143.85"><defs><linearGradient id="a" x1="21.07" y1="122.79" x2="122.79" y2="21.07" gradientUnits="userSpaceOnUse"><stop offset="0" stop-color="#f3ca5f"/><stop offset=".22" stop-color="#f88827"/><stop offset=".43" stop-color="#dc2d5c"/><stop offset=".71" stop-color="#a44882"/><stop offset="1" stop-color="#46469b"/></linearGradient><linearGradient id="b" x1="119.63" y1="97.15" x2="60.82" y2="-4.71" gradientUnits="userSpaceOnUse"><stop offset="0"/><stop offset=".1" stop-color="#060502"/><stop offset=".23" stop-color="#151208"/><stop offset=".37" stop-color="#302813"/><stop offset=".52" stop-color="#544621"/><stop offset=".69" stop-color="#836d33"/><stop offset=".85" stop-color="#bb9c49"/><stop offset="1" stop-color="#f3ca5f"/></linearGradient></defs><g data-name="Слой 2"><g data-name="Calque 1"><path d="M143.85 71.93A71.93 71.93 0 1171.93 0a71.92 71.92 0 0171.92 71.93z" fill="url(#a)"/><path d="M94.79 113.85H49.06a18.94 18.94 0 01-18.91-18.92V49.22a18.94 18.94 0 0118.91-18.93h45.73a19 19 0 0118.92 18.93v45.71a18.94 18.94 0 01-18.92 18.92zM49.06 38.61a10.62 10.62 0 00-10.6 10.61v45.71a10.62 10.62 0 0010.6 10.61h45.73a10.61 10.61 0 0010.59-10.61V49.22a10.61 10.61 0 00-10.59-10.61zm22.87 55.31a21.6 21.6 0 1121.59-21.6 21.62 21.62 0 01-21.59 21.6zm0-34.88a13.28 13.28 0 1013.28 13.28A13.29 13.29 0 0071.93 59zm22.42-13.63a5.49 5.49 0 105.49 5.49 5.48 5.48 0 00-5.49-5.49z" fill="#fff"/><path d="M71.93 0a71.63 71.63 0 00-39.75 12c.17 42.94 35.91 77.71 80 77.71a81.39 81.39 0 0030.7-6A71.89 71.89 0 0071.93 0z" style="mix-blend-mode:screen" opacity=".3" fill="url(#b)"/></g></g></svg>