<?xml version="1.0" encoding="UTF-8"?><!DOCTYPE svg PUBLIC "-//W3C//DTD SVG 1.1//EN" "http://www.w3.org/Graphics/SVG/1.1/DTD/svg11.dtd"><svg xmlns="http://www.w3.org/2000/svg" xmlns:xlink="http://www.w3.org/1999/xlink"><defs><clipPath id="clip0"><path transform="rotate(90 16 0)" fill="#fff" d="M16 0h16v16H16z"/></clipPath><clipPath id="clip0"><path fill="#fff" d="M0 0h32v32H0z"/></clipPath><clipPath id="clip0"><path fill="#fff" d="M0 0h16v16H0z"/></clipPath></defs><symbol id="icon-arrow"><g clip-path="url(#clip0)"><path d="M8.44 12.138l7.38-7.4a.62.62 0 00-.88-.876L8 10.822l-6.94-6.96a.62.62 0 10-.879.876l7.38 7.4a.62.62 0 00.878 0z"/></g></symbol><symbol id="icon-basket"><path d="M12.888 25.86H34.14c.523 0 .983-.348 1.126-.85l4.688-16.407a1.172 1.172 0 00-1.127-1.494H10.185l-.838-3.77a1.172 1.172 0 00-1.144-.917H1.172a1.172 1.172 0 100 2.344h6.091l4.231 19.04a3.52 3.52 0 00-2.119 3.225 3.52 3.52 0 003.516 3.516h21.25a1.172 1.172 0 100-2.344H12.89a1.173 1.173 0 01-.003-2.343zM37.275 9.453l-4.018 14.063H13.83L10.706 9.453h26.569zm-25.556 24.61a3.52 3.52 0 003.515 3.515 3.52 3.52 0 003.516-3.516 3.52 3.52 0 00-3.516-3.515 3.52 3.52 0 00-3.515 3.515zm3.515-1.172c.646 0 1.172.525 1.172 1.172 0 .646-.526 1.171-1.172 1.171a1.173 1.173 0 01-1.171-1.172c0-.646.525-1.171 1.171-1.171zm13.047 1.172a3.52 3.52 0 003.516 3.515 3.52 3.52 0 003.515-3.516 3.52 3.52 0 00-3.515-3.515 3.52 3.52 0 00-3.516 3.515zm3.516-1.172c.646 0 1.172.525 1.172 1.172 0 .646-.526 1.171-1.172 1.171a1.173 1.173 0 01-1.172-1.172c0-.646.526-1.171 1.172-1.171z"/></symbol><symbol id="icon-clock"><path d="M16 0C7.178 0 0 7.178 0 16s7.178 16 16 16 16-7.178 16-16S24.822 0 16 0zm0 30C8.28 30 2 23.72 2 16S8.28 2 16 2s14 6.28 14 14-6.28 14-14 14z"/><path d="M17 6h-2v10.414l6.293 6.293 1.414-1.414L17 15.586V6z"/></symbol><symbol id="icon-heart-full"><g clip-path="url(#clip0)"><path d="M29.461 4.536c-1.656-1.796-3.929-2.786-6.4-2.786-1.847 0-3.539.584-5.028 1.736A10.285 10.285 0 0016 5.608a10.28 10.28 0 00-2.033-2.122c-1.489-1.152-3.18-1.736-5.028-1.736-2.471 0-4.744.99-6.4 2.786C.901 6.312 0 8.738 0 11.366c0 2.707 1.009 5.184 3.174 7.797 1.937 2.337 4.72 4.71 7.945 7.457 1.1.939 2.348 2.002 3.644 3.135a1.877 1.877 0 002.474 0c1.295-1.133 2.544-2.197 3.645-3.135 3.223-2.747 6.007-5.12 7.944-7.457C30.992 16.55 32 14.073 32 11.367c0-2.63-.902-5.055-2.539-6.83z"/></g></symbol><symbol id="icon-heart"><path d="M20 37.775c-.57 0-1.119-.207-1.546-.581a462.241 462.241 0 00-4.549-3.912l-.007-.006c-4.03-3.435-7.51-6.4-9.93-9.322C1.26 20.688 0 17.592 0 14.21c0-3.287 1.127-6.32 3.173-8.539 2.07-2.246 4.912-3.482 8.001-3.482 2.31 0 4.424.73 6.285 2.169A12.88 12.88 0 0120 7.011a12.858 12.858 0 012.541-2.653c1.861-1.44 3.976-2.17 6.285-2.17 3.089 0 5.93 1.237 8.001 3.483C38.873 7.89 40 10.922 40 14.21c0 3.383-1.26 6.48-3.967 9.745-2.421 2.922-5.9 5.887-9.93 9.32a457.906 457.906 0 00-4.557 3.92c-.428.374-.977.58-1.546.58zM11.174 4.53c-2.427 0-4.656.968-6.278 2.727-1.646 1.786-2.553 4.254-2.553 6.95 0 2.846 1.057 5.39 3.428 8.251 2.292 2.765 5.7 5.67 9.647 9.033l.007.006a469.389 469.389 0 014.572 3.933 546.7 546.7 0 014.586-3.94c3.946-3.363 7.355-6.267 9.646-9.032 2.37-2.86 3.428-5.405 3.428-8.25 0-2.697-.907-5.165-2.553-6.95-1.621-1.76-3.851-2.728-6.278-2.728-1.778 0-3.41.565-4.852 1.68-1.284.993-2.179 2.25-2.704 3.128-.27.452-.744.722-1.27.722s-1-.27-1.27-.722c-.525-.879-1.42-2.135-2.704-3.129-1.442-1.114-3.074-1.68-4.852-1.68z"/></symbol><symbol id="icon-magnifying-glass"><path d="M23.79 22.776l-5.832-5.832a10.192 10.192 0 002.511-6.71C20.47 4.586 15.877 0 10.236 0 4.59 0 .003 4.592.003 10.233c0 5.641 4.592 10.233 10.233 10.233 2.565 0 4.912-.947 6.71-2.511l5.833 5.832a.723.723 0 00.506.213.72.72 0 00.506-1.224zM1.434 10.233c0-4.853 3.949-8.796 8.797-8.796 4.853 0 8.796 3.948 8.796 8.796 0 4.848-3.943 8.802-8.796 8.802-4.848 0-8.797-3.949-8.797-8.802z"/></symbol><symbol id="icon-place"><path d="M26.622 5.564C24.18 2.028 20.308 0 16.001 0S7.822 2.028 5.379 5.564C2.95 9.082 2.387 13.535 3.875 17.47c.398 1.074 1.03 2.118 1.875 3.097l9.399 11.04a1.118 1.118 0 001.704 0l9.395-11.037c.85-.984 1.481-2.027 1.876-3.093 1.49-3.942.93-8.395-1.502-11.913zm-.593 11.13c-.305.822-.802 1.635-1.476 2.417a.043.043 0 00-.006.006l-8.546 10.038L7.449 19.11c-.675-.78-1.171-1.594-1.479-2.424-1.23-3.254-.763-6.936 1.25-9.85C9.239 3.914 12.44 2.238 16 2.238c3.562 0 6.762 1.676 8.781 4.598 2.014 2.914 2.48 6.596 1.248 9.857z"/><path d="M16 6.639a6.273 6.273 0 00-6.265 6.265A6.273 6.273 0 0016 19.17a6.273 6.273 0 006.265-6.266A6.273 6.273 0 0016 6.639zm0 10.293a4.033 4.033 0 01-4.027-4.028A4.033 4.033 0 0116 8.876a4.033 4.033 0 014.028 4.028A4.033 4.033 0 0116 16.932z"/></symbol><symbol id="icon-tick"><g clip-path="url(#clip0)"><path d="M15.82 2.36a.615.615 0 00-.87 0l-9.976 9.975-3.923-3.924a.615.615 0 10-.87.87l4.358 4.36c.24.24.63.24.87 0L15.82 3.23a.614.614 0 000-.87z"/></g></symbol><symbol id="icon-user"><path d="M27.314 20.686a15.938 15.938 0 00-6.08-3.813A9.246 9.246 0 0025.25 9.25C25.25 4.15 21.1 0 16 0S6.75 4.15 6.75 9.25a9.246 9.246 0 004.016 7.623 15.939 15.939 0 00-6.08 3.813A15.895 15.895 0 000 32h2.5c0-7.444 6.056-13.5 13.5-13.5S29.5 24.556 29.5 32H32c0-4.274-1.664-8.292-4.686-11.314zM16 16a6.758 6.758 0 01-6.75-6.75A6.758 6.758 0 0116 2.5a6.758 6.758 0 016.75 6.75A6.758 6.758 0 0116 16z"/></symbol></svg>