<svg xmlns="http://www.w3.org/2000/svg" viewBox="0 0 44 44"><defs><linearGradient id="a" x1="21.96" y1="43.76" x2="22.04" y2="-.24" gradientTransform="matrix(1 0 0 -1 0 43.89)" gradientUnits="userSpaceOnUse"><stop offset="0" stop-color="#f39440"/><stop offset="1" stop-color="#e7680b"/></linearGradient></defs><g data-name="Слой 2"><g data-name="Слой 1"><path d="M22 44A22 22 0 100 22a22 22 0 0022 22z" fill="url(#a)"/><path d="M34.17 25.26L40 22l-5.83-3.26L37.59 13l-6.68.09.09-6.68-5.74 3.42L22 4l-3.26 5.83L13 6.41l.09 6.68L6.41 13l3.42 5.74L4 22l5.83 3.26L6.41 31l6.68-.09-.09 6.68 5.74-3.42L22 40l3.26-5.83L31 37.59l-.09-6.68 6.68.09zm-4.35 10.28l-5-3-2.82 5.1-2.83-5.06-5 3 .08-5.8-5.8.08 3-5L6.36 22l5.07-2.83-3-5 5.8.08-.08-5.8 5 3L22 6.36l2.83 5.06 5-3-.08 5.8 5.8-.08-3 5L37.64 22l-5.06 2.83 3 5-5.8-.08zM31 20.29a2.49 2.49 0 01-.9-.53 2.53 2.53 0 01-.6-.85 2.6 2.6 0 01-.18-1 2.36 2.36 0 01.26-1 2.45 2.45 0 00.42-1.13 2.34 2.34 0 00-.2-1.13c-.43-.68-1.38-.77-2.6-.19a2.56 2.56 0 01-1.12.26 2.45 2.45 0 01-1.45-.48 2.4 2.4 0 01-.92-1.24c-.51-1.43-1.21-1.73-1.71-1.73s-1.2.3-1.71 1.73a2.45 2.45 0 01-.87 1.23 2.5 2.5 0 01-1.42.48 2.56 2.56 0 01-1.12-.26c-1.22-.58-2.17-.48-2.6.19a2.34 2.34 0 00-.2 1.13 2.45 2.45 0 00.38 1.09 2.42 2.42 0 01-.55 2.91 2.3 2.3 0 01-.91.52c-1.43.51-1.73 1.21-1.73 1.71s.3 1.2 1.73 1.71a2.49 2.49 0 01.9.53 2.53 2.53 0 01.6.85 2.6 2.6 0 01.18 1 2.36 2.36 0 01-.26 1 2.45 2.45 0 00-.42 1.13 2.34 2.34 0 00.2 1.13c.43.68 1.38.77 2.6.19a2.58 2.58 0 011.2-.25 2.5 2.5 0 011.42.48 2.45 2.45 0 01.87 1.23c.51 1.43 1.21 1.73 1.71 1.73s1.2-.3 1.71-1.73a2.45 2.45 0 01.87-1.23 2.5 2.5 0 011.42-.48 2.56 2.56 0 011.12.26c1.22.58 2.17.48 2.6-.19a2.34 2.34 0 00.2-1.13 2.45 2.45 0 00-.38-1.09 2.45 2.45 0 01-.07-2.05 2.5 2.5 0 01.61-.86 2.41 2.41 0 01.92-.52c1.43-.51 1.73-1.21 1.73-1.71s-.34-1.2-1.73-1.71zm-.4 2.29a3.63 3.63 0 00-1.32.79 3.59 3.59 0 00-.88 1.26 3.76 3.76 0 00-.27 1.52 3.65 3.65 0 00.38 1.49c.34.71.28 1 .25 1.07h-.15a2.13 2.13 0 01-.92-.27 3.67 3.67 0 00-1.69-.35 3.63 3.63 0 00-3.42 2.47c-.26.73-.53.92-.58.93s-.32-.2-.58-.93A3.63 3.63 0 0018 28.09a3.71 3.71 0 00-1.63.38 2.13 2.13 0 01-.92.27.38.38 0 01-.15 0 1.78 1.78 0 01.25-1.07 3.65 3.65 0 00.38-1.49 3.76 3.76 0 00-.27-1.52 3.59 3.59 0 00-.88-1.26 3.63 3.63 0 00-1.32-.79c-.74-.26-.93-.53-.93-.58s.19-.32.93-.58a3.63 3.63 0 001.32-.79 3.59 3.59 0 00.88-1.26 3.76 3.76 0 00.27-1.52 3.65 3.65 0 00-.38-1.49c-.34-.71-.28-1-.25-1.07h.15a2.28 2.28 0 01.92.27A3.71 3.71 0 0018 16a3.63 3.63 0 003.42-2.47c.26-.74.53-.93.58-.93s.32.19.58.93a3.56 3.56 0 001.33 1.75 3.63 3.63 0 002.09.66 3.85 3.85 0 001.63-.37 2.13 2.13 0 01.92-.27h.15a1.78 1.78 0 01-.25 1.07 3.65 3.65 0 00-.38 1.49 3.76 3.76 0 00.27 1.52 3.59 3.59 0 00.88 1.26 3.63 3.63 0 001.32.79c.74.26.93.53.93.58s-.17.34-.91.6zM22 16.41a5.56 5.56 0 00-5.16 3.45 5.5 5.5 0 00-.32 3.23 5.59 5.59 0 004.39 4.39 5.5 5.5 0 003.23-.32A5.56 5.56 0 0027.59 22 5.6 5.6 0 0022 16.41zm0 10a4.43 4.43 0 01-2.47-.75 4.46 4.46 0 01-1.88-4.57 4.44 4.44 0 011.22-2.27 4.49 4.49 0 012.28-1.21 4.46 4.46 0 11.85 8.83z" fill="#fff"/></g></g></svg>