<svg width="406" height="84" fill="none" xmlns="http://www.w3.org/2000/svg"><path d="M60.04 64.264L40.486 80.923l7.644-16.66h11.91z" fill="#358935"/><path d="M60.008 63.03H49.012l2.334-7.227 8.662 7.227z" fill="#3EB340"/><path d="M49.67 55.153l-2.307 7.144-4.376-4.146-3.166-2.998h9.849z" fill="#65C266"/><path d="M45.876 64.264L37.6 82.298l-8.276-18.034h16.552z" fill="#3EB340"/><path d="M45.547 63.03H29.635l7.96-7.533 4.665 4.42 3.287 3.113z" fill="#358935"/><path d="M35.365 55.153l-7.546 7.144-2.3-7.144h9.846z" fill="#65C266"/><path d="M27.058 64.264l7.645 16.659-19.554-16.66h11.91z" fill="#358935"/><path d="M23.842 55.803l2.328 7.227H15.175l8.667-7.227z" fill="#3EB340"/><path d="M25.519 55.153h9.846l-7.546 7.144-2.3-7.144zM15.175 63.03l8.667-7.227 2.328 7.227H15.175zm36.171-7.227l8.662 7.227H49.012l2.334-7.227zM29.635 63.03l7.96-7.533 4.665 4.42h0l3.287 3.113H29.635zm13.352-4.879h0l-3.166-2.998h9.849l-2.307 7.144-4.376-4.146zm-13.663 6.113h16.552L37.6 82.298l-8.276-18.034zm18.806 0h11.91L40.486 80.923l7.644-16.66zm-32.98 0h11.908l7.645 16.659-19.554-16.66z" stroke="#000" stroke-width=".5" stroke-linecap="round" stroke-linejoin="round"/><path d="M55.865 38.791c-3.354 7.764-9.485 12.845-14.662 15.124a29.141 29.141 0 006.549-5.458 28.984 28.984 0 004.883-7.609c2.997-6.833 4.837-18.395-.29-21.647-1.181-.75-2.363-.835-3.685-.93-6.7-.485-11.794 4.555-11.743 4.495 4.645-5.482 10.49-8.372 15.145-6.88 6.645 2.128 8.348 12.384 3.803 22.906z" fill="#3EB340"/><path d="M12.876 24.174c1.193 11.856 9.356 19.958 12.461 22.958a47.715 47.715 0 008.931 6.782 63.424 63.424 0 01-7.1-6.296c-1.337-1.378-5.425-5.591-7.79-9.83-4.933-8.845-5.318-23.12 1.14-27.037 4.223-2.56 8.443-1.043 11.423 1.168 3.001 2.228 5.459 7.098 5.474 7.09-3.035-10.16-8.704-11.992-8.704-11.992-3.744-1.343-7.92-.263-10.117 1.141-.415.266-1.641 1.05-2.841 2.545-3.686 4.586-3.146 10.794-2.877 13.47z" fill="#3EB340"/><path d="M39.821 47.148c0 2.403-.218 4.705-.617 6.828h-3.016c.979-2.621 1.59-5.747 1.69-9.124.01-.333.016-.67.016-1.008 0-6.155-1.686-11.584-4.254-14.802 3.276 2.557 5.689 8.574 6.114 15.81.045.753.067 1.519.067 2.296z" fill="#358935"/><path d="M40.111 40.672s-.713-8.537 7.553-11.244c.188.615 1.242 4.291-.946 7.903-1.708 2.82-4.353 3.884-5.169 4.178.66-2.839.815-3.599 1.618-5.017-1.733 1.51-2.816 3.826-3.056 4.18zm-4.314-10.479s1.198-10.302-14.262-10.95c1.078 5.652 1.931 12.459 12.344 12.187-.6-2.388-.935-4.453-6.592-8.065 2.098.764 8.514 5.633 8.51 6.828zm-.749 5.275s-5.123-4.98-11.355-.33c2.757 2.12 7.234 5.431 12.126 2.002-1.579-.662-3.017-1.202-5.774-1.218 1.617-.607 3.04-.694 5.003-.453z" fill="#3EB340"/><path d="M105.427 31.422v7.91h-4.284v-4.14H87.034v4.14H82.75l.029-7.91h.8c1.199-.038 2.046-.914 2.541-2.628.495-1.713.8-4.16.914-7.34l.228-6.255h15.366v16.223h2.799zm-14.309-9.54c-.095 2.38-.295 4.38-.6 5.998-.304 1.6-.77 2.78-1.4 3.542h8.94V18.969h-6.854l-.086 2.914zm31.822 5.684c0 .057-.028.457-.086 1.2h-11.623c.209.952.704 1.704 1.485 2.256.78.552 1.751.828 2.913.828.799 0 1.504-.114 2.113-.343a5.298 5.298 0 001.742-1.142l2.371 2.57c-1.447 1.657-3.561 2.485-6.34 2.485-1.733 0-3.266-.333-4.599-1-1.332-.685-2.361-1.628-3.084-2.827-.724-1.2-1.085-2.56-1.085-4.084 0-1.504.352-2.856 1.056-4.056a7.5 7.5 0 012.942-2.827c1.257-.686 2.656-1.028 4.198-1.028 1.505 0 2.866.323 4.084.97a6.965 6.965 0 012.856 2.8c.705 1.2 1.057 2.599 1.057 4.198zm-7.968-4.598c-1.009 0-1.856.285-2.542.857-.685.57-1.104 1.352-1.257 2.342h7.569c-.152-.972-.571-1.743-1.257-2.314-.685-.59-1.523-.885-2.513-.885zm20.437-3.37c1.428 0 2.723.333 3.884 1a6.927 6.927 0 012.77 2.77c.667 1.18 1 2.56 1 4.14 0 1.581-.333 2.971-1 4.17a7.174 7.174 0 01-2.77 2.771c-1.161.647-2.456.971-3.884.971-1.961 0-3.504-.619-4.627-1.856v7.168h-4.455V19.826h4.255v1.771c1.105-1.333 2.713-2 4.827-2zm-.771 12.166c1.142 0 2.075-.38 2.799-1.142.742-.78 1.113-1.818 1.113-3.113s-.371-2.323-1.113-3.085c-.724-.78-1.657-1.17-2.799-1.17-1.143 0-2.085.39-2.828 1.17-.723.762-1.085 1.79-1.085 3.085s.362 2.332 1.085 3.113c.743.762 1.685 1.142 2.828 1.142zm26.484-4.198c0 .057-.028.457-.085 1.2h-11.624c.209.952.704 1.704 1.485 2.256.781.552 1.752.828 2.913.828.8 0 1.504-.114 2.114-.343a5.308 5.308 0 001.742-1.142l2.37 2.57c-1.447 1.657-3.56 2.485-6.34 2.485-1.733 0-3.266-.333-4.598-1-1.333-.685-2.361-1.628-3.085-2.827-.723-1.2-1.085-2.56-1.085-4.084 0-1.504.352-2.856 1.057-4.056a7.497 7.497 0 012.941-2.827c1.257-.686 2.656-1.028 4.199-1.028 1.504 0 2.865.323 4.084.97a6.977 6.977 0 012.856 2.8c.704 1.2 1.056 2.599 1.056 4.198zm-7.968-4.598c-1.009 0-1.856.285-2.542.857-.685.57-1.104 1.352-1.256 2.342h7.568c-.152-.972-.571-1.743-1.257-2.314-.685-.59-1.523-.885-2.513-.885zm23.122 4.198c1.809.61 2.713 1.828 2.713 3.656 0 1.39-.524 2.466-1.571 3.227-1.047.762-2.608 1.142-4.684 1.142h-8.196V19.826h7.854c1.923 0 3.427.352 4.512 1.057 1.085.685 1.628 1.656 1.628 2.913 0 .762-.2 1.438-.6 2.028-.381.571-.933 1.018-1.656 1.342zm-7.654-1.028h3.37c1.561 0 2.342-.552 2.342-1.657 0-1.085-.781-1.627-2.342-1.627h-3.37v3.284zm3.741 6.026c1.637 0 2.456-.562 2.456-1.685 0-.59-.19-1.018-.571-1.285-.381-.286-.981-.428-1.799-.428h-3.827v3.398h3.741zm18.252-7.425c1.999.019 3.532.476 4.598 1.37 1.066.876 1.599 2.123 1.599 3.742 0 1.694-.599 3.018-1.799 3.97-1.18.933-2.846 1.4-4.998 1.4l-7.711-.03V19.826h4.427v4.913h3.884zm-1 7.31c.857.02 1.514-.16 1.971-.542.457-.38.685-.952.685-1.713 0-.743-.228-1.285-.685-1.628-.438-.343-1.095-.524-1.971-.543l-2.884-.028v4.455h2.884zm22.573-12.223v15.365h-3.97v-4.398h-3.284l-2.913 4.398h-4.741l3.512-5.026c-1.066-.419-1.884-1.019-2.456-1.8-.552-.799-.828-1.76-.828-2.884 0-1.809.647-3.199 1.942-4.17 1.314-.99 3.113-1.485 5.398-1.485h7.34zm-7.254 3.627c-.952 0-1.676.172-2.171.514-.476.343-.714.895-.714 1.657s.229 1.323.686 1.685c.476.343 1.19.514 2.142.514h3.341v-4.37h-3.284zm29.42 12.081c-2.037 0-3.884-.438-5.54-1.313-1.638-.895-2.933-2.123-3.885-3.685-.932-1.58-1.399-3.36-1.399-5.34s.467-3.751 1.399-5.313a9.903 9.903 0 013.885-3.684c1.656-.895 3.513-1.342 5.569-1.342 1.732 0 3.294.304 4.684.914a9.383 9.383 0 013.541 2.627l-2.97 2.742c-1.352-1.561-3.027-2.342-5.027-2.342-1.237 0-2.342.276-3.313.828a5.783 5.783 0 00-2.284 2.257c-.534.97-.8 2.075-.8 3.313 0 1.237.266 2.341.8 3.313a5.984 5.984 0 002.284 2.284c.971.533 2.076.8 3.313.8 2 0 3.675-.79 5.027-2.37l2.97 2.741a9.256 9.256 0 01-3.541 2.656c-1.409.61-2.98.914-4.713.914zm24.36-15.708v15.365h-4.456V29.48c-1.295.648-2.723.972-4.284.972-2.075 0-3.646-.467-4.712-1.4-1.047-.952-1.571-2.418-1.571-4.398v-4.827h4.455v4.541c0 .933.238 1.61.714 2.028.495.419 1.2.628 2.114.628a7.474 7.474 0 003.284-.742v-6.455h4.456zm10.247-.228c2.38 0 4.207.571 5.483 1.713 1.276 1.124 1.914 2.828 1.914 5.113v8.767h-4.17v-1.913c-.838 1.428-2.399 2.142-4.684 2.142-1.181 0-2.209-.2-3.085-.6-.856-.4-1.513-.952-1.97-1.656-.457-.705-.686-1.504-.686-2.4 0-1.427.534-2.55 1.6-3.37 1.085-.818 2.751-1.227 4.998-1.227h3.541c0-.972-.295-1.714-.885-2.228-.59-.533-1.476-.8-2.656-.8a7.65 7.65 0 00-2.428.4c-.78.248-1.447.59-1.999 1.028l-1.599-3.113c.837-.59 1.837-1.047 2.998-1.37a13.66 13.66 0 013.628-.486zm-.343 12.823c.761 0 1.437-.171 2.028-.514.59-.362 1.009-.885 1.256-1.57v-1.572h-3.056c-1.828 0-2.741.6-2.741 1.8 0 .571.218 1.028.656 1.37.457.324 1.076.486 1.857.486zm18.921 2.999c-1.637 0-3.113-.333-4.427-1-1.294-.685-2.313-1.628-3.055-2.827-.724-1.2-1.086-2.56-1.086-4.084 0-1.523.362-2.885 1.086-4.084.742-1.2 1.761-2.133 3.055-2.8 1.314-.684 2.79-1.027 4.427-1.027 1.619 0 3.028.343 4.227 1.028a5.922 5.922 0 012.656 2.884l-3.456 1.857c-.799-1.41-1.951-2.114-3.455-2.114-1.162 0-2.123.381-2.885 1.143-.761.761-1.142 1.8-1.142 3.113 0 1.314.381 2.351 1.142 3.113.762.762 1.723 1.142 2.885 1.142 1.523 0 2.675-.704 3.455-2.113l3.456 1.885c-.552 1.218-1.437 2.17-2.656 2.856-1.199.685-2.608 1.028-4.227 1.028zm22.444-11.938h-5.198v11.71h-4.427v-11.71h-5.198v-3.656h14.823v3.656zm10.686 1.257c1.999.019 3.532.476 4.598 1.37 1.066.876 1.599 2.123 1.599 3.742 0 1.694-.599 3.018-1.799 3.97-1.18.933-2.846 1.4-4.998 1.4l-7.711-.03V19.826h4.427v4.913h3.884zm-1 7.31c.857.02 1.514-.16 1.971-.542.457-.38.685-.952.685-1.713 0-.743-.228-1.285-.685-1.628-.438-.343-1.095-.524-1.971-.543l-2.884-.028v4.455h2.884zm22.573-12.223v15.365h-3.97v-4.398h-3.284l-2.913 4.398h-4.741l3.512-5.026c-1.066-.419-1.884-1.019-2.456-1.8-.552-.799-.828-1.76-.828-2.884 0-1.809.647-3.199 1.942-4.17 1.314-.99 3.113-1.485 5.398-1.485h7.34zm-7.254 3.627c-.952 0-1.676.172-2.171.514-.476.343-.714.895-.714 1.657s.229 1.323.686 1.685c.476.343 1.19.514 2.142.514h3.341v-4.37h-3.284zm13.135 11.967c-.78 0-1.437-.267-1.97-.8-.534-.533-.8-1.2-.8-1.999 0-.819.266-1.476.8-1.97.533-.515 1.19-.772 1.97-.772.781 0 1.438.257 1.971.771.533.495.8 1.152.8 1.971 0 .8-.267 1.466-.8 2-.533.532-1.19.799-1.971.799zm22.96-15.822c1.428 0 2.723.333 3.884 1a6.93 6.93 0 012.771 2.77c.666 1.18.999 2.56.999 4.14 0 1.581-.333 2.971-.999 4.17a7.176 7.176 0 01-2.771 2.771c-1.161.647-2.456.971-3.884.971-1.961 0-3.503-.619-4.626-1.856v7.168h-4.456V19.826h4.256v1.771c1.104-1.333 2.713-2 4.826-2zm-.771 12.166c1.143 0 2.076-.38 2.799-1.142.743-.78 1.114-1.818 1.114-3.113s-.371-2.323-1.114-3.085c-.723-.78-1.656-1.17-2.799-1.17-1.142 0-2.085.39-2.827 1.17-.724.762-1.086 1.79-1.086 3.085s.362 2.332 1.086 3.113c.742.762 1.685 1.142 2.827 1.142zm32.714-4.312c0 2.38-.8 4.265-2.399 5.655-1.581 1.37-3.846 2.16-6.798 2.37v5.255h-4.084v-5.255c-2.951-.21-5.226-.99-6.826-2.342-1.58-1.37-2.37-3.265-2.37-5.683 0-2.38.781-4.227 2.342-5.54 1.58-1.315 3.865-2.076 6.854-2.286V14h4.084v5.626c2.952.21 5.217.98 6.798 2.314 1.599 1.332 2.399 3.17 2.399 5.512zm-18.165 0c0 1.37.391 2.427 1.171 3.17.781.742 2.019 1.209 3.713 1.4v-8.94c-1.694.171-2.932.619-3.713 1.342-.78.705-1.171 1.714-1.171 3.028zm8.968 4.57c1.695-.191 2.932-.657 3.713-1.4.8-.743 1.2-1.8 1.2-3.17 0-1.314-.4-2.323-1.2-3.028-.781-.723-2.018-1.17-3.713-1.342v8.94z" fill="#358935"/><path d="M91.745 65.431h-5.46l-1.042 2.52h-2.788l5.241-11.76h2.688l5.259 11.76h-2.856l-1.042-2.52zm-.857-2.066l-1.865-4.502-1.864 4.502h3.73zm13.017-.135c1.064.36 1.596 1.076 1.596 2.151 0 .818-.308 1.45-.924 1.898-.616.449-1.534.672-2.755.672H97v-9.038h4.621c1.131 0 2.016.207 2.654.622.638.403.958.974.958 1.713 0 .448-.118.846-.353 1.193-.224.336-.549.6-.975.79zm-4.502-.604h1.982c.919 0 1.378-.325 1.378-.974 0-.639-.459-.958-1.378-.958h-1.982v1.932zm2.201 3.545c.963 0 1.445-.33 1.445-.992 0-.347-.112-.599-.336-.755-.224-.169-.577-.253-1.059-.253h-2.251v2h2.201zm13.441-5.108h-3.058v6.888h-2.604v-6.887h-3.057v-2.15h8.719v2.15zm5.253 7.023c-.952 0-1.809-.196-2.57-.588a4.499 4.499 0 01-1.764-1.663c-.426-.706-.639-1.507-.639-2.403 0-.896.213-1.697.639-2.402a4.381 4.381 0 011.764-1.647c.761-.403 1.618-.604 2.57-.604.952 0 1.803.201 2.554.604.75.392 1.338.941 1.764 1.647.425.706.638 1.506.638 2.402 0 .896-.213 1.697-.638 2.403a4.513 4.513 0 01-1.764 1.663c-.751.392-1.602.588-2.554.588zm0-2.15c.672 0 1.221-.225 1.647-.673.436-.459.655-1.07.655-1.83 0-.762-.219-1.367-.655-1.815-.426-.46-.975-.689-1.647-.689s-1.226.23-1.663.689c-.437.448-.655 1.053-.655 1.814 0 .762.218 1.372.655 1.831.437.448.991.672 1.663.672zm12.084-7.157c.84 0 1.602.196 2.285.588.695.38 1.238.924 1.63 1.63.392.694.588 1.506.588 2.435 0 .93-.196 1.748-.588 2.453a4.217 4.217 0 01-1.63 1.63c-.683.38-1.445.57-2.285.57-1.153 0-2.06-.363-2.721-1.091v4.217h-2.621V58.913h2.503v1.042c.65-.784 1.596-1.176 2.839-1.176zm-.453 7.157c.672 0 1.221-.225 1.646-.673.437-.459.655-1.07.655-1.83 0-.762-.218-1.367-.655-1.815-.425-.46-.974-.689-1.646-.689-.672 0-1.227.23-1.663.689-.426.448-.639 1.053-.639 1.814 0 .762.213 1.372.639 1.831.436.448.991.672 1.663.672zm11.093 2.15c-.963 0-1.831-.196-2.604-.588a4.604 4.604 0 01-1.797-1.663c-.426-.706-.639-1.507-.639-2.403 0-.896.213-1.697.639-2.402a4.483 4.483 0 011.797-1.647c.773-.403 1.641-.604 2.604-.604.952 0 1.781.201 2.487.604a3.485 3.485 0 011.562 1.697l-2.033 1.092c-.47-.828-1.148-1.243-2.032-1.243-.684 0-1.249.224-1.697.672-.448.448-.672 1.059-.672 1.831 0 .773.224 1.383.672 1.831.448.448 1.013.672 1.697.672.896 0 1.573-.414 2.032-1.243l2.033 1.11c-.325.716-.845 1.276-1.562 1.68-.706.402-1.535.604-2.487.604zm9.623-3.562h-1.36v3.427h-2.621v-9.038h2.621v3.511h1.411l2.453-3.51h2.788l-3.158 4.334 3.377 4.703h-3.091l-2.42-3.427zm6.798-5.611h2.604v5.376l4.401-5.376h2.403v9.038h-2.604v-5.375l-4.385 5.375h-2.419v-9.038zm20.713 4.553c0 .033-.016.269-.05.705h-6.838c.124.56.415 1.003.874 1.328.459.325 1.03.487 1.714.487.47 0 .884-.067 1.243-.202a3.13 3.13 0 001.025-.672l1.394 1.512c-.851.975-2.094 1.462-3.73 1.462-1.019 0-1.92-.196-2.704-.588-.784-.403-1.389-.958-1.815-1.663-.425-.706-.638-1.507-.638-2.403 0-.885.207-1.68.621-2.385a4.415 4.415 0 011.731-1.663c.739-.404 1.562-.605 2.469-.605.885 0 1.686.19 2.403.57.717.382 1.277.93 1.68 1.647.414.706.621 1.53.621 2.47zm-4.687-2.705c-.593 0-1.092.168-1.495.504-.403.336-.65.795-.739 1.378h4.452c-.09-.572-.336-1.025-.739-1.361-.404-.347-.896-.52-1.479-.52zm11.454-1.848h2.604v5.376l4.402-5.376h2.402v9.038h-2.604v-5.375l-4.385 5.375h-2.419v-9.038zm17.709 4.335c.537.168.952.425 1.243.772.302.348.453.762.453 1.243 0 .572-.196 1.076-.588 1.512-.392.426-.929.756-1.612.992-.684.235-1.456.353-2.319.353-.705 0-1.4-.073-2.083-.219a7.908 7.908 0 01-1.898-.655l.705-1.831c.952.459 2.005.688 3.159.688.616 0 1.097-.09 1.444-.268.359-.19.538-.454.538-.79a.712.712 0 00-.37-.655c-.246-.157-.604-.235-1.075-.235h-1.848v-1.63h1.613c.459 0 .812-.073 1.058-.218a.698.698 0 00.37-.639c0-.29-.157-.515-.47-.672-.303-.157-.74-.235-1.311-.235-.873 0-1.825.207-2.856.622l-.638-1.815c1.254-.548 2.475-.823 3.662-.823.818 0 1.546.1 2.184.303.65.201 1.159.498 1.529.89.37.38.554.829.554 1.344a1.9 1.9 0 01-.386 1.16c-.258.335-.61.604-1.058.806zm13.733 2.553v4.1h-2.436v-1.95h-6.35v1.95h-2.436v-4.1h.369c.56-.011.947-.341 1.16-.991.212-.65.347-1.574.403-2.772l.117-3.125h7.88v6.888h1.293zm-6.921-3.578c-.034.918-.107 1.669-.219 2.25-.101.583-.297 1.026-.588 1.328h3.814v-4.738h-2.957l-.05 1.16zm17.357 1.243c0 .033-.017.269-.05.705h-6.838c.123.56.414 1.003.874 1.328.459.325 1.03.487 1.713.487a3.51 3.51 0 001.243-.202 3.11 3.11 0 001.025-.672l1.395 1.512c-.852.975-2.095 1.462-3.73 1.462-1.019 0-1.921-.196-2.705-.588-.784-.403-1.389-.958-1.814-1.663-.426-.706-.639-1.507-.639-2.403 0-.885.208-1.68.622-2.385a4.412 4.412 0 011.73-1.663c.74-.404 1.563-.605 2.47-.605.885 0 1.686.19 2.402.57.717.382 1.277.93 1.68 1.647.415.706.622 1.53.622 2.47zm-4.687-2.705c-.594 0-1.092.168-1.495.504-.404.336-.65.795-.74 1.378h4.452c-.089-.572-.336-1.025-.739-1.361-.403-.347-.896-.52-1.478-.52zm15.283-1.848v9.038h-2.621v-6.887h-2.856l-.084 1.596c-.045 1.187-.157 2.172-.336 2.956-.179.784-.471 1.4-.874 1.848-.403.448-.963.672-1.68.672-.381 0-.834-.067-1.361-.201l.135-2.15c.179.022.308.033.386.033.392 0 .683-.14.874-.42.201-.291.336-.655.403-1.092.067-.448.118-1.036.151-1.764l.135-3.629h7.728zm2.52 0h2.604v5.376l4.401-5.376h2.403v9.038h-2.604v-5.375l-4.385 5.375h-2.419v-9.038zm19.958 0v9.038h-2.336v-2.587h-1.932l-1.713 2.587h-2.789l2.066-2.956c-.627-.247-1.108-.6-1.444-1.059-.325-.47-.488-1.036-.488-1.697 0-1.063.381-1.881 1.143-2.452.773-.583 1.831-.874 3.175-.874h4.318zm-4.268 2.134c-.56 0-.985.1-1.276.302-.28.202-.42.527-.42.975 0 .448.134.778.403.99.28.202.7.303 1.26.303h1.965v-2.57h-1.932zm16.87-2.268c.84 0 1.601.196 2.285.588a4.07 4.07 0 011.629 1.63c.392.694.588 1.506.588 2.435 0 .93-.196 1.748-.588 2.453a4.221 4.221 0 01-1.629 1.63c-.684.38-1.445.57-2.285.57-1.154 0-2.061-.363-2.722-1.091v4.217h-2.621V58.913h2.504v1.042c.649-.784 1.596-1.176 2.839-1.176zm-.454 7.157c.672 0 1.221-.225 1.647-.673.436-.459.655-1.07.655-1.83 0-.762-.219-1.367-.655-1.815-.426-.46-.975-.689-1.647-.689s-1.226.23-1.663.689c-.426.448-.638 1.053-.638 1.814 0 .762.212 1.372.638 1.831.437.448.991.672 1.663.672zm15.602-7.023l-4.082 9.593c-.415 1.041-.93 1.775-1.546 2.2-.605.426-1.338.64-2.201.64-.47 0-.935-.074-1.394-.22-.459-.145-.834-.347-1.126-.604l.958-1.865a2.277 2.277 0 001.478.571c.359 0 .65-.09.874-.268.224-.168.426-.454.605-.857l.033-.084-3.914-9.106h2.705l2.537 6.132 2.553-6.132h2.52zm9.396 0v9.038H296.4v-3.36c-.762.381-1.602.572-2.52.572-1.221 0-2.145-.275-2.772-.823-.616-.56-.924-1.423-.924-2.588v-2.839h2.621v2.671c0 .55.14.947.42 1.193.291.246.705.37 1.243.37a4.4 4.4 0 001.932-.437v-3.797h2.621zm2.516 0h2.604v3.528h3.931v-3.528h2.621v9.038h-2.621v-3.376h-3.931v3.376h-2.604v-9.038zm15.899 9.173c-.952 0-1.809-.196-2.571-.588a4.513 4.513 0 01-1.764-1.663c-.425-.706-.638-1.507-.638-2.403 0-.896.213-1.697.638-2.402a4.394 4.394 0 011.764-1.647c.762-.403 1.619-.604 2.571-.604.952 0 1.803.201 2.553.604a4.38 4.38 0 011.764 1.647c.426.706.639 1.506.639 2.402 0 .896-.213 1.697-.639 2.403a4.499 4.499 0 01-1.764 1.663c-.75.392-1.601.588-2.553.588zm0-2.15c.672 0 1.22-.225 1.646-.673.437-.459.655-1.07.655-1.83 0-.762-.218-1.367-.655-1.815-.426-.46-.974-.689-1.646-.689-.672 0-1.227.23-1.664.689-.436.448-.655 1.053-.655 1.814 0 .762.219 1.372.655 1.831.437.448.992.672 1.664.672zm6.758-7.023h2.604v5.376l4.402-5.376h2.402v9.038h-2.604v-5.375l-4.385 5.375h-2.419v-9.038zm4.536-.974c-1.971 0-2.962-.868-2.973-2.604h1.713c.011.392.118.7.319.924.213.212.521.319.924.319.404 0 .712-.107.924-.32.224-.223.336-.531.336-.923h1.748c-.012 1.736-1.008 2.604-2.991 2.604zm17.475.84c.84 0 1.602.196 2.285.588a4.07 4.07 0 011.629 1.63c.392.694.588 1.506.588 2.435 0 .93-.196 1.748-.588 2.453a4.221 4.221 0 01-1.629 1.63c-.683.38-1.445.57-2.285.57-1.154 0-2.061-.363-2.722-1.091v4.217h-2.62V58.913h2.503v1.042c.649-.784 1.596-1.176 2.839-1.176zm-.454 7.157c.672 0 1.221-.225 1.647-.673.437-.459.655-1.07.655-1.83 0-.762-.218-1.367-.655-1.815-.426-.46-.975-.689-1.647-.689s-1.226.23-1.663.689c-.425.448-.638 1.053-.638 1.814 0 .762.213 1.372.638 1.831.437.448.991.672 1.663.672zm10.157-7.157c1.4 0 2.475.336 3.225 1.008.751.66 1.126 1.663 1.126 3.007v5.157h-2.453v-1.125c-.493.84-1.411 1.26-2.755 1.26-.694 0-1.299-.118-1.814-.353-.504-.235-.891-.56-1.16-.974a2.542 2.542 0 01-.403-1.412c0-.84.314-1.5.941-1.982.638-.482 1.618-.722 2.94-.722h2.083c0-.572-.173-1.008-.521-1.31-.347-.314-.868-.471-1.562-.471a4.48 4.48 0 00-1.428.235 3.648 3.648 0 00-1.176.605l-.941-1.831c.493-.348 1.081-.616 1.764-.807a8.038 8.038 0 012.134-.285zm-.202 7.543c.448 0 .846-.1 1.193-.303.347-.212.594-.52.739-.924v-.924h-1.797c-1.076 0-1.613.353-1.613 1.059 0 .336.129.605.386.806.269.19.633.286 1.092.286zm12.054-6.787c.863 0 1.619.179 2.268.537.65.347 1.148.84 1.496 1.479.358.638.537 1.377.537 2.217 0 .863-.213 1.63-.638 2.302-.415.66-.997 1.176-1.747 1.546-.751.358-1.602.537-2.554.537-1.579 0-2.822-.504-3.73-1.512-.896-1.02-1.344-2.509-1.344-4.469 0-1.814.392-3.259 1.176-4.334.796-1.087 2.011-1.798 3.646-2.134l4.301-.857.353 2.252-3.797.756c-1.031.201-1.798.537-2.302 1.008-.493.47-.784 1.136-.873 1.999a3.89 3.89 0 011.411-.974 4.515 4.515 0 011.797-.353zm-.621 6.585c.672 0 1.209-.218 1.613-.655.414-.437.621-.991.621-1.663 0-.683-.207-1.227-.621-1.63-.404-.403-.941-.604-1.613-.604-.683 0-1.232.201-1.647.604-.414.404-.621.947-.621 1.63 0 .683.213 1.243.638 1.68.426.425.969.638 1.63.638zm10.934 1.966c-.952 0-1.809-.196-2.57-.588a4.499 4.499 0 01-1.764-1.663c-.426-.706-.639-1.507-.639-2.403 0-.896.213-1.697.639-2.402a4.381 4.381 0 011.764-1.647c.761-.403 1.618-.604 2.57-.604.952 0 1.803.201 2.554.604.75.392 1.338.941 1.764 1.647.425.706.638 1.506.638 2.402 0 .896-.213 1.697-.638 2.403a4.513 4.513 0 01-1.764 1.663c-.751.392-1.602.588-2.554.588zm0-2.15c.672 0 1.221-.225 1.647-.673.436-.459.655-1.07.655-1.83 0-.762-.219-1.367-.655-1.815-.426-.46-.975-.689-1.647-.689s-1.226.23-1.663.689c-.437.448-.655 1.053-.655 1.814 0 .762.218 1.372.655 1.831.437.448.991.672 1.663.672zm14.024-4.873h-3.057v6.888h-2.604v-6.887h-3.058v-2.15h8.719v2.15zm6.152.74c1.176.01 2.066.274 2.671.79.605.514.907 1.254.907 2.217 0 1.008-.342 1.786-1.025 2.335-.683.549-1.652.823-2.906.823l-4.402-.017v-9.038h2.604v2.89h2.151zm4.552-2.89h2.604v9.038h-2.604v-9.038zm-5.14 7.19c.504.012.89-.095 1.159-.319s.403-.56.403-1.008c0-.436-.134-.756-.403-.957-.258-.202-.644-.308-1.159-.32l-1.563-.016v2.62h1.563z" fill="#3EB340"/></svg>