<?xml version="1.0" encoding="UTF-8"?><!DOCTYPE svg PUBLIC "-//W3C//DTD SVG 1.1//EN" "http://www.w3.org/Graphics/SVG/1.1/DTD/svg11.dtd"><svg xmlns="http://www.w3.org/2000/svg" xmlns:xlink="http://www.w3.org/1999/xlink"><defs><linearGradient id="a" x1="21.07" y1="122.79" x2="122.79" y2="21.07" gradientUnits="userSpaceOnUse"><stop offset="0" stop-color="#f3ca5f"/><stop offset=".22" stop-color="#f88827"/><stop offset=".43" stop-color="#dc2d5c"/><stop offset=".71" stop-color="#a44882"/><stop offset="1" stop-color="#46469b"/></linearGradient><linearGradient id="b" x1="119.63" y1="97.15" x2="60.82" y2="-4.71" gradientUnits="userSpaceOnUse"><stop offset="0"/><stop offset=".1" stop-color="#060502"/><stop offset=".23" stop-color="#151208"/><stop offset=".37" stop-color="#302813"/><stop offset=".52" stop-color="#544621"/><stop offset=".69" stop-color="#836d33"/><stop offset=".85" stop-color="#bb9c49"/><stop offset="1" stop-color="#f3ca5f"/></linearGradient><clipPath id="clip0"><path fill="#fff" d="M0 0h32v32H0z"/></clipPath><clipPath id="clip0"><path fill="#fff" d="M0 0h32v32H0z"/></clipPath><linearGradient id="a" x1="21.96" y1="43.76" x2="22.04" y2="-.24" gradientTransform="matrix(1 0 0 -1 0 43.89)" gradientUnits="userSpaceOnUse"><stop offset="0" stop-color="#f39440"/><stop offset="1" stop-color="#e7680b"/></linearGradient></defs><symbol id="icon-facebook"><path d="M16 32c8.837 0 16-7.163 16-16S24.837 0 16 0 0 7.163 0 16s7.163 16 16 16z" fill="#3B5998"/><path d="M20.023 16.626h-2.855v10.46h-4.326v-10.46h-2.057V12.95h2.057v-2.378c0-1.701.808-4.365 4.364-4.365l3.204.014v3.568h-2.325c-.381 0-.917.19-.917 1.002v2.163H20.4l-.377 3.672z" fill="#fff"/></symbol><symbol id="icon-instagram" viewBox="0 0 143.85 143.85"><g data-name="&#x421;&#x43B;&#x43E;&#x439; 2"><g data-name="Calque 1"><path d="M143.85 71.93A71.93 71.93 0 1171.93 0a71.92 71.92 0 0171.92 71.93z" fill="url(#a)"/><path d="M94.79 113.85H49.06a18.94 18.94 0 01-18.91-18.92V49.22a18.94 18.94 0 0118.91-18.93h45.73a19 19 0 0118.92 18.93v45.71a18.94 18.94 0 01-18.92 18.92zM49.06 38.61a10.62 10.62 0 00-10.6 10.61v45.71a10.62 10.62 0 0010.6 10.61h45.73a10.61 10.61 0 0010.59-10.61V49.22a10.61 10.61 0 00-10.59-10.61zm22.87 55.31a21.6 21.6 0 1121.59-21.6 21.62 21.62 0 01-21.59 21.6zm0-34.88a13.28 13.28 0 1013.28 13.28A13.29 13.29 0 0071.93 59zm22.42-13.63a5.49 5.49 0 105.49 5.49 5.48 5.48 0 00-5.49-5.49z" fill="#fff"/><path d="M71.93 0a71.63 71.63 0 00-39.75 12c.17 42.94 35.91 77.71 80 77.71a81.39 81.39 0 0030.7-6A71.89 71.89 0 0071.93 0z" style="mix-blend-mode:screen" opacity=".3" fill="url(#b)"/></g></g></symbol><symbol id="icon-livejournal"><g clip-path="url(#clip0)"><path d="M22.791 15.598L10.998 3.806a14.46 14.46 0 00-7.146 6.907l11.92 11.92 4.412 1.037 4.651 1-1-4.657-1.044-4.416zm-2.963 7.504l-3.465-.79a12.386 12.386 0 016.115-6.116l.789 3.465a7.785 7.785 0 00-3.44 3.44z" fill="#385C8E"/><path d="M16.857 2.042c-1.987 0-3.916.385-5.739 1.142L8.011.076A.262.262 0 007.688.04 23.163 23.163 0 00.204 7.522a.262.262 0 00.038.323l2.979 2.978a14.843 14.843 0 00-1.344 6.198c0 8.26 6.72 14.979 14.98 14.979 8.259 0 14.978-6.72 14.978-14.979 0-8.26-6.72-14.979-14.979-14.979zm3.327 21.628l-4.413-1.038-11.92-11.92a14.461 14.461 0 017.147-6.906l11.793 11.791 1.043 4.415 1.001 4.658-4.651-1z" fill="#73A1FB"/><path d="M16.362 22.313l3.465.789a7.785 7.785 0 013.44-3.44l-.79-3.465a12.386 12.386 0 00-6.115 6.116z" fill="#fff"/></g></symbol><symbol id="icon-odnoklassniki"><path d="M16.015 13.26a2.739 2.739 0 002.74-2.763A2.744 2.744 0 0016 7.745a2.75 2.75 0 00-2.76 2.785 2.745 2.745 0 002.774 2.73z" fill="#FC841D"/><path d="M16 0C7.163 0 0 7.164 0 16s7.163 16 16 16 16-7.164 16-16S24.837 0 16 0zm.023 4.866c3.116.008 5.618 2.557 5.602 5.708-.016 3.079-2.558 5.573-5.67 5.563-3.08-.01-5.605-2.564-5.586-5.648.017-3.118 2.544-5.632 5.654-5.623zm6.312 13.485c-.689.708-1.518 1.22-2.44 1.577-.87.337-1.825.507-2.77.62.143.156.21.232.3.32 1.282 1.29 2.57 2.572 3.848 3.865.435.44.526.986.286 1.498-.262.56-.849.928-1.424.888-.365-.025-.65-.206-.902-.46-.968-.974-1.954-1.93-2.901-2.922-.277-.29-.409-.234-.653.017a193.478 193.478 0 01-2.957 2.97c-.447.44-.979.52-1.497.268-.551-.267-.902-.83-.875-1.395.02-.382.207-.675.47-.936 1.269-1.267 2.534-2.537 3.8-3.806.084-.085.162-.174.284-.305-1.726-.18-3.283-.605-4.615-1.647-.166-.13-.337-.255-.487-.4-.584-.56-.643-1.202-.181-1.863.395-.566 1.057-.717 1.746-.392.134.063.261.142.383.226 2.483 1.706 5.895 1.753 8.388.076.247-.189.511-.344.817-.422.595-.153 1.15.066 1.469.586.365.595.36 1.175-.089 1.637z" fill="#FC841D"/></symbol><symbol id="icon-russia"><path d="M16 32c8.837 0 16-7.163 16-16C32 7.164 24.837.001 16 .001 7.166.001.002 7.164.002 16.001c0 8.836 7.164 15.999 16 15.999z" fill="#fff"/><path d="M31.086 10.665h-9.858a44.23 44.23 0 01.008 10.606h9.87a15.94 15.94 0 00.894-5.27 15.96 15.96 0 00-.914-5.336z" fill="#2B479D"/><path d="M21.227 10.665h9.858a.114.114 0 00-.005-.014C29.033 4.878 23.765.63 17.437.066c2.449 1.342 3.164 5.595 3.79 10.6z" fill="#EFECEC"/><path d="M17.437 31.934c6.34-.565 11.615-4.828 13.654-10.617l.016-.046h-9.871c-.621 5.031-1.34 9.314-3.799 10.663z" fill="#E63026"/><path d="M0 16c0 1.848.317 3.62.893 5.271h21.166a44.24 44.24 0 00-.008-10.606H.914A15.967 15.967 0 000 16z" fill="#3757A6"/><path d="M.92 10.652a.24.24 0 01-.006.013h21.137c-.626-5.003-2.165-9.257-4.614-10.6A16.28 16.28 0 0015.999 0C9.04 0 3.12 4.445.92 10.652z" fill="#EFEFEF"/><path d="M22.06 21.271H.892l.015.046C3.101 27.539 9.028 32 16 32c.484 0 .963-.024 1.437-.066 2.46-1.349 4.001-5.632 4.622-10.663z" fill="#E73B36"/></symbol><symbol id="icon-twitter"><g clip-path="url(#clip0)"><path d="M16 32c8.837 0 16-7.164 16-16 0-8.837-7.163-16-16-16C7.165 0 .002 7.163.002 16c0 8.836 7.163 16 16 16z" fill="#55ACEE"/><path d="M25.8 11.499a7.627 7.627 0 01-2.196.601 3.835 3.835 0 001.682-2.115 7.655 7.655 0 01-2.429.928 3.825 3.825 0 00-6.517 3.489 10.856 10.856 0 01-7.883-3.997A3.824 3.824 0 009.64 15.51a3.798 3.798 0 01-1.732-.479v.049a3.827 3.827 0 003.068 3.75 3.813 3.813 0 01-1.727.066 3.829 3.829 0 003.573 2.655 7.673 7.673 0 01-5.662 1.584 10.818 10.818 0 005.862 1.718c7.034 0 10.881-5.827 10.881-10.881 0-.166-.004-.331-.011-.495a7.755 7.755 0 001.909-1.98z" fill="#F1F2F2"/></g></symbol><symbol id="icon-vk"><path d="M16 32c8.837 0 16-7.163 16-16S24.837 0 16 0 0 7.163 0 16s7.163 16 16 16z" fill="#4D76A1"/><path fill-rule="evenodd" clip-rule="evenodd" d="M15.396 23.017h1.255s.38-.041.573-.25c.179-.192.173-.552.173-.552s-.024-1.685.758-1.933c.77-.244 1.76 1.629 2.81 2.349.793.545 1.396.425 1.396.425l2.806-.039s1.468-.09.772-1.244c-.057-.094-.406-.854-2.086-2.414-1.76-1.633-1.524-1.369.595-4.193 1.29-1.72 1.807-2.77 1.646-3.22-.154-.428-1.103-.315-1.103-.315l-3.16.02s-.234-.033-.407.071c-.17.102-.28.34-.28.34s-.5 1.33-1.166 2.463c-1.407 2.388-1.97 2.514-2.199 2.366-.535-.346-.401-1.389-.401-2.13 0-2.314.35-3.28-.684-3.53-.343-.082-.596-.137-1.474-.146-1.127-.012-2.082.003-2.622.268-.36.176-.636.568-.467.59.208.029.681.128.932.47.324.44.312 1.43.312 1.43s.186 2.724-.434 3.063c-.426.232-1.01-.242-2.264-2.41-.643-1.11-1.128-2.336-1.128-2.336s-.093-.23-.26-.352c-.203-.149-.486-.196-.486-.196l-3.002.02s-.45.012-.616.208c-.147.174-.011.535-.011.535s2.35 5.498 5.01 8.269c2.44 2.54 5.212 2.373 5.212 2.373z" fill="#fff"/></symbol><symbol id="icon-yarmarka" viewBox="0 0 44 44"><g data-name="&#x421;&#x43B;&#x43E;&#x439; 2"><g data-name="&#x421;&#x43B;&#x43E;&#x439; 1"><path d="M22 44A22 22 0 100 22a22 22 0 0022 22z" fill="url(#a)"/><path d="M34.17 25.26L40 22l-5.83-3.26L37.59 13l-6.68.09.09-6.68-5.74 3.42L22 4l-3.26 5.83L13 6.41l.09 6.68L6.41 13l3.42 5.74L4 22l5.83 3.26L6.41 31l6.68-.09-.09 6.68 5.74-3.42L22 40l3.26-5.83L31 37.59l-.09-6.68 6.68.09zm-4.35 10.28l-5-3-2.82 5.1-2.83-5.06-5 3 .08-5.8-5.8.08 3-5L6.36 22l5.07-2.83-3-5 5.8.08-.08-5.8 5 3L22 6.36l2.83 5.06 5-3-.08 5.8 5.8-.08-3 5L37.64 22l-5.06 2.83 3 5-5.8-.08zM31 20.29a2.49 2.49 0 01-.9-.53 2.53 2.53 0 01-.6-.85 2.6 2.6 0 01-.18-1 2.36 2.36 0 01.26-1 2.45 2.45 0 00.42-1.13 2.34 2.34 0 00-.2-1.13c-.43-.68-1.38-.77-2.6-.19a2.56 2.56 0 01-1.12.26 2.45 2.45 0 01-1.45-.48 2.4 2.4 0 01-.92-1.24c-.51-1.43-1.21-1.73-1.71-1.73s-1.2.3-1.71 1.73a2.45 2.45 0 01-.87 1.23 2.5 2.5 0 01-1.42.48 2.56 2.56 0 01-1.12-.26c-1.22-.58-2.17-.48-2.6.19a2.34 2.34 0 00-.2 1.13 2.45 2.45 0 00.38 1.09 2.42 2.42 0 01-.55 2.91 2.3 2.3 0 01-.91.52c-1.43.51-1.73 1.21-1.73 1.71s.3 1.2 1.73 1.71a2.49 2.49 0 01.9.53 2.53 2.53 0 01.6.85 2.6 2.6 0 01.18 1 2.36 2.36 0 01-.26 1 2.45 2.45 0 00-.42 1.13 2.34 2.34 0 00.2 1.13c.43.68 1.38.77 2.6.19a2.58 2.58 0 011.2-.25 2.5 2.5 0 011.42.48 2.45 2.45 0 01.87 1.23c.51 1.43 1.21 1.73 1.71 1.73s1.2-.3 1.71-1.73a2.45 2.45 0 01.87-1.23 2.5 2.5 0 011.42-.48 2.56 2.56 0 011.12.26c1.22.58 2.17.48 2.6-.19a2.34 2.34 0 00.2-1.13 2.45 2.45 0 00-.38-1.09 2.45 2.45 0 01-.07-2.05 2.5 2.5 0 01.61-.86 2.41 2.41 0 01.92-.52c1.43-.51 1.73-1.21 1.73-1.71s-.34-1.2-1.73-1.71zm-.4 2.29a3.63 3.63 0 00-1.32.79 3.59 3.59 0 00-.88 1.26 3.76 3.76 0 00-.27 1.52 3.65 3.65 0 00.38 1.49c.34.71.28 1 .25 1.07h-.15a2.13 2.13 0 01-.92-.27 3.67 3.67 0 00-1.69-.35 3.63 3.63 0 00-3.42 2.47c-.26.73-.53.92-.58.93s-.32-.2-.58-.93A3.63 3.63 0 0018 28.09a3.71 3.71 0 00-1.63.38 2.13 2.13 0 01-.92.27.38.38 0 01-.15 0 1.78 1.78 0 01.25-1.07 3.65 3.65 0 00.38-1.49 3.76 3.76 0 00-.27-1.52 3.59 3.59 0 00-.88-1.26 3.63 3.63 0 00-1.32-.79c-.74-.26-.93-.53-.93-.58s.19-.32.93-.58a3.63 3.63 0 001.32-.79 3.59 3.59 0 00.88-1.26 3.76 3.76 0 00.27-1.52 3.65 3.65 0 00-.38-1.49c-.34-.71-.28-1-.25-1.07h.15a2.28 2.28 0 01.92.27A3.71 3.71 0 0018 16a3.63 3.63 0 003.42-2.47c.26-.74.53-.93.58-.93s.32.19.58.93a3.56 3.56 0 001.33 1.75 3.63 3.63 0 002.09.66 3.85 3.85 0 001.63-.37 2.13 2.13 0 01.92-.27h.15a1.78 1.78 0 01-.25 1.07 3.65 3.65 0 00-.38 1.49 3.76 3.76 0 00.27 1.52 3.59 3.59 0 00.88 1.26 3.63 3.63 0 001.32.79c.74.26.93.53.93.58s-.17.34-.91.6zM22 16.41a5.56 5.56 0 00-5.16 3.45 5.5 5.5 0 00-.32 3.23 5.59 5.59 0 004.39 4.39 5.5 5.5 0 003.23-.32A5.56 5.56 0 0027.59 22 5.6 5.6 0 0022 16.41zm0 10a4.43 4.43 0 01-2.47-.75 4.46 4.46 0 01-1.88-4.57 4.44 4.44 0 011.22-2.27 4.49 4.49 0 012.28-1.21 4.46 4.46 0 11.85 8.83z" fill="#fff"/></g></g></symbol><symbol id="icon-youtube"><path d="M16 0c8.837 0 16 7.164 16 16s-7.163 16-16 16S0 24.836 0 16 7.163 0 16 0z" fill="#C4302B"/><path d="M15.614 13c.506 0 .902-.16 1.192-.389.288-.23.432-.543.432-.945V9.24c0-.357-.147-.652-.44-.879-.295-.227-.672-.34-1.134-.34-.505 0-.91.107-1.208.322-.3.216-.45.504-.45.869v2.434c0 .4.146.716.438.953.292.237.683.402 1.17.402zm-.529-3.67c0-.092.048-.166.143-.225a.721.721 0 01.372-.085c.166 0 .3.028.401.085.102.059.152.133.152.225v2.306c0 .114-.05.204-.15.269a.738.738 0 01-.403.097c-.165 0-.293-.031-.382-.096a.313.313 0 01-.133-.27V9.33zm3.877 3.668c.178 0 .359-.102.547-.204.19-.104.371-.256.545-.454v.539H21V8.014h-.945v3.693a1.342 1.342 0 01-.29.261.537.537 0 01-.265.103c-.089 0-.154-.025-.192-.078-.04-.051-.062-.134-.062-.248v-3.73h-.943v4.065c0 .29.057.507.166.651.111.145.275.267.494.267zm2.748 2.011H10.29c-1.816 0-3.287 1.415-3.287 3.158v2.67c0 1.744 1.471 3.16 3.287 3.16h11.42c1.815 0 3.287-1.416 3.287-3.16v-2.67c0-1.743-1.472-3.158-3.287-3.158zm-9.721 2.71h-1.01v4.182h-.977v-4.182h-1.01v-.713h2.997v.713zm3.014 4.24H13.95v-.434a2.25 2.25 0 01-.609.365 1.597 1.597 0 01-.611.127c-.244 0-.426-.059-.55-.178-.122-.117-.185-.293-.185-.528V18.01h1.053v3.03c0 .093.022.16.064.201.046.043.119.062.217.062a.727.727 0 00.294-.083 1.35 1.35 0 00.327-.212v-2.999h1.053v3.951zm3.986-.752c0 .259-.082.456-.245.595-.161.139-.399.207-.706.207-.205 0-.387-.026-.545-.079a1.37 1.37 0 01-.445-.248v.28h-1.051v-4.956h1.05v1.597c.143-.11.292-.196.447-.254.159-.059.319-.087.48-.087.329 0 .58.077.753.232.175.156.262.385.262.684v2.029zm4.006-1.115h-1.94v.714c0 .199.032.337.099.415.068.077.183.115.344.115.17 0 .286-.033.354-.098.066-.066.102-.209.102-.433v-.172h1.043v.194c0 .388-.125.68-.383.877-.254.196-.634.294-1.139.294-.455 0-.813-.104-1.074-.312-.26-.206-.392-.494-.392-.858v-1.702c0-.327.144-.597.432-.804.287-.206.655-.309 1.11-.309.464 0 .821.096 1.071.287.25.191.373.467.373.825v.967zm-11.572-7.08h1.193v-2.907l1.389-4.1h-1.213l-.738 2.802h-.076l-.774-2.802h-1.203l1.422 4.231v2.776zm6.06 5.83l-.221.036-.215.111v2.278a.916.916 0 00.247.129l.251.039c.128 0 .221-.025.281-.078.059-.051.09-.135.09-.25v-1.889c0-.125-.035-.218-.109-.281a.493.493 0 00-.324-.095z" fill="#fff"/><path d="M21.554 18.676c-.162 0-.277.034-.348.104-.07.067-.104.181-.104.34v.382H22v-.382c0-.159-.037-.272-.107-.34-.069-.07-.184-.104-.338-.104z" fill="#fff"/></symbol></svg>