<?xml version="1.0" encoding="UTF-8"?><!DOCTYPE svg PUBLIC "-//W3C//DTD SVG 1.1//EN" "http://www.w3.org/Graphics/SVG/1.1/DTD/svg11.dtd"><svg xmlns="http://www.w3.org/2000/svg" xmlns:xlink="http://www.w3.org/1999/xlink"><defs><clipPath id="clip0"><path fill="#fff" d="M0 0h56v56H0z"/></clipPath><clipPath id="clip0"><path fill="#fff" d="M0 0h56v56H0z"/></clipPath><clipPath id="clip0"><path fill="#fff" d="M0 0h56v56H0z"/></clipPath><clipPath id="clip0"><path fill="#fff" d="M0 0h56v56H0z"/></clipPath><clipPath id="clip0"><path fill="#fff" d="M0 0h56v56H0z"/></clipPath><clipPath id="clip0"><path fill="#fff" d="M0 0h56v56H0z"/></clipPath><clipPath id="clip0"><path fill="#fff" d="M0 0h56v56H0z"/></clipPath><clipPath id="clip0"><path fill="#fff" d="M0 0h56v56H0z"/></clipPath></defs><symbol id="icon-1-aries"><g clip-path="url(#clip0)"><path d="M55.227 19.842a1.92 1.92 0 00-1.959-1.493c-.939.033-1.7.703-1.85 1.628a37.46 37.46 0 01-.592 2.922c-.012-3.62-.216-6.248-.236-6.495a5.948 5.948 0 00-2.052-4.446 5.875 5.875 0 00-4.683-1.381c-2.468.354-4.666 1.198-6.546 2.509a14.35 14.35 0 00-9.305-3.415 14.376 14.376 0 00-9.319 3.406c-1.877-1.306-4.071-2.147-6.533-2.5a5.875 5.875 0 00-4.683 1.381 5.947 5.947 0 00-2.052 4.446c-.02.247-.224 2.875-.236 6.496a37.479 37.479 0 01-.593-2.923 1.923 1.923 0 00-1.85-1.628A1.92 1.92 0 00.78 19.842c-.83 3.524-.998 6.828-.498 9.82.692 4.145 2.656 7.555 5.838 10.135a5.625 5.625 0 003.532 1.254h3.524a2.81 2.81 0 002.215-1.07c.54-.681.736-1.556.539-2.4-.018-.074-1.233-3.485-1.657-8.098.004.015 1.792 7.18 7.028 12.175a5.108 5.108 0 003.541 1.414 5.117 5.117 0 003.104-1.034 5.24 5.24 0 003.467 1.037 4.453 4.453 0 01-6.02.744.832.832 0 00-.978 1.345 6.066 6.066 0 003.59 1.166 6.117 6.117 0 005.734-4c.31-.194.6-.422.863-.685 4.39-4.37 6.329-9.041 7.176-12.557-.355 5.008-1.682 8.419-1.7 8.493a2.81 2.81 0 00.54 2.4 2.81 2.81 0 002.214 1.07h3.524a5.625 5.625 0 003.532-1.254 16.957 16.957 0 001.777-1.662.832.832 0 00-1.222-1.129 15.342 15.342 0 01-1.602 1.5 3.957 3.957 0 01-2.485.881h-3.524c-.24 0-.467-.072-.658-.203.929-.228 1.825-.961 2.163-1.263.51-.406 6.773-5.628 8.725-17.678.024-.149.113-.227.266-.232.151-.006.247.066.281.212.69 2.928 1.241 7.279-.05 11.38a.832.832 0 001.586.5c1.405-4.462.821-9.13.083-12.261zm-27.223-8.508c4.378 0 8.248 2.218 10.545 5.59-2.26.402-4.333 1.586-5.945 3.418-1.916 2.178-2.972 5.045-2.972 8.07 0 1.91.427 3.743 1.2 5.37a2.322 2.322 0 00-.487-.257c-.673-.26-1.484-.26-2.342-.26-.858 0-1.668 0-2.341.26-.155.06-.317.14-.474.247a12.552 12.552 0 001.187-5.36c0-3.025-1.055-5.89-2.972-8.07-1.614-1.835-3.693-3.02-5.957-3.421a12.732 12.732 0 0110.558-5.587zM9.587 35.787c1.099 1.32 1.927 2.008 2.082 2.133.338.301 1.234 1.036 2.165 1.264a1.159 1.159 0 01-.659.203H9.651c-.9 0-1.783-.313-2.484-.882-6.298-5.107-6.07-12.76-4.769-18.282.035-.146.13-.217.282-.212.152.006.242.083.266.232C3.985 26.659 6.29 31.112 8.04 33.718a.832.832 0 101.38-.928 28.22 28.22 0 01-2.437-4.496c-.276-4.77-.08-9.081.03-10.88 1.078.199 3.038.674 5.031 1.713-1.02.385-2.134.945-3.276 1.756a2.838 2.838 0 00-1.17 1.947c-.1.781.133 1.575.64 2.179a10.762 10.762 0 004.224 3.069c.362 4.319 1.116 7.495 1.726 9.486-.345-.103-.966-.486-1.428-.898a1.023 1.023 0 00-.042-.036c-.008-.006-.784-.623-1.855-1.908a.832.832 0 10-1.277 1.065zm4.016-12.345a27.71 27.71 0 00-4.288-.662c.08-.216.223-.403.417-.54 1.607-1.142 3.143-1.718 4.375-2.005-.277 1.008-.503 3.181-.504 3.207zm.168 3.338a9.103 9.103 0 01-3.726-2.261c.939.102 2.205.291 3.575.64.026.466.073 1.011.151 1.621zm.49-8.278c-2.756-1.82-5.725-2.517-7.123-2.758a4.287 4.287 0 011.42-2.529 4.212 4.212 0 013.358-.992c2.078.298 3.937.98 5.537 2.028a14.367 14.367 0 00-2.713 4.17c-.154.023-.313.05-.479.081zm1.653 10.693c-.81-3.28-.65-5.678-.648-5.7l.002-.023a12.72 12.72 0 011.276-4.998c4.62.46 8.167 4.72 8.167 9.938 0 3.828-1.937 7.265-4.987 8.946a23.324 23.324 0 01-3.81-8.163zm11.198 11.378a3.467 3.467 0 01-2.271.836 3.46 3.46 0 01-2.395-.956 23.217 23.217 0 01-1.68-1.775 10.962 10.962 0 003.54-3.355c-.013.12-.023.244-.023.378 0 1.72 1.182 3.676 2.829 4.216v.656zm-.006-2.524c.013-.026.19-.357.003-.715l-.584-1.236c-.199-.43-.542-.45-.578-.457.008-.563.148-.713 2.056-.713 1.911 0 2.05.15 2.056.715-.032.007-.34-.03-.567.455l-.585 1.236c-.197.414-.011.686 0 .71-.28.22-.589.355-.904.355-.312 0-.619-.133-.897-.35zm6.322 2.417a3.303 3.303 0 01-2.35.958 3.567 3.567 0 01-2.303-.852v-.617c1.71-.482 2.948-2.493 2.948-4.254 0-.142-.01-.275-.025-.4.9 1.34 2.065 2.474 3.435 3.302a27.158 27.158 0 01-1.706 1.863zm2.736-3.184c-2.978-1.708-4.869-5.114-4.869-8.87 0-5.215 3.543-9.472 8.158-9.935a12.673 12.673 0 011.302 5.608c0 1.8-.377 7.416-4.59 13.197zm5.581-18.78c-.17-.032-.332-.06-.487-.082a14.456 14.456 0 00-2.718-4.16c1.604-1.054 3.467-1.738 5.55-2.037a4.212 4.212 0 013.358.992 4.287 4.287 0 011.42 2.528c-1.398.243-4.367.938-7.123 2.759zm.659 4.94a14.345 14.345 0 00-.509-3.21c1.224.286 2.765.861 4.38 2.008.194.137.336.325.416.54-.92.067-2.491.236-4.288.662zm3.558 1.077a9.103 9.103 0 01-3.746 2.267 21.51 21.51 0 00.167-1.626 25.825 25.825 0 013.579-.64zm3.06 3.775a28.276 28.276 0 01-2.382 4.413c-1.774 2.664-3.337 3.91-3.351 3.922a.87.87 0 00-.043.036c-.463.413-1.083.796-1.428.9.61-1.995 1.363-5.17 1.725-9.487a10.76 10.76 0 004.225-3.07 2.837 2.837 0 00.638-2.178 2.839 2.839 0 00-1.168-1.947 14.508 14.508 0 00-3.276-1.755c1.989-1.036 3.952-1.512 5.03-1.714.11 1.8.306 6.106.03 10.88z"/><path d="M53.8 33.4a.832.832 0 00-1.117.37c-.227.454-.481.899-.755 1.323-.25.385-.139.9.247 1.15.14.09.725.326 1.15-.248.336-.453.59-.972.845-1.479a.832.832 0 00-.37-1.116zM26.51 13.903a.832.832 0 00-.997-.626 11.128 11.128 0 00-4.408 2.12.832.832 0 00-.135 1.168c.165.207.712.45 1.169.134 1.148-.792 2.388-1.49 3.745-1.8a.832.832 0 00.625-.996zm2.752-.835c-.357-.04-.72-.063-1.079-.07a.833.833 0 00-.026 1.664c.305.005.612.06.917.06.667 0 .872-.309.92-.734a.832.832 0 00-.732-.92zM19.238 24.5a2.555 2.555 0 00-2.552 2.551 2.555 2.555 0 002.552 2.552 2.555 2.555 0 002.552-2.552 2.555 2.555 0 00-2.552-2.552zm0 3.44a.89.89 0 010-1.777.89.89 0 010 1.776zm17.457-3.44a2.555 2.555 0 00-2.552 2.551 2.555 2.555 0 002.552 2.552 2.555 2.555 0 002.552-2.552 2.555 2.555 0 00-2.552-2.552zm0 3.44a.89.89 0 010-1.777.89.89 0 010 1.776z"/></g></symbol><symbol id="icon-10-coz"><g clip-path="url(#clip0)"><path d="M5.54 16.23a79.242 79.242 0 01-.105-1.315.833.833 0 00-1.66.121c.033.445.057.897.11 1.34.094.813.876.757.901.755a.832.832 0 00.755-.902z"/><path d="M52.316 5.319A5.4 5.4 0 0050.061 1a5.256 5.256 0 00-4.797-.715C36.84 3.147 32.85 11.037 31.505 14.373a13.594 13.594 0 00-3.501-.457c-1.21 0-2.384.16-3.501.457-1.346-3.336-5.335-11.226-13.76-14.087a5.256 5.256 0 00-4.796.715 5.4 5.4 0 00-2.255 4.317c-.022.252-.237 2.969-.061 7.194a.831.831 0 101.662-.07 70.266 70.266 0 01-.018-5.672c1.443.893 4.04 2.696 6.456 5.371a126.782 126.782 0 00-.787 5.81c-.41.058-.796.127-1.155.203a2.604 2.604 0 00-1.77 1.338 2.61 2.61 0 00-.103 2.224 12.575 12.575 0 002.391 3.743c-.127 2.19-.208 4.41-.237 6.599-.007.536-.443.644-.576.665-.134.02-.587.047-.755-.469-1.359-4.165-2.342-8.67-2.92-13.391a.831.831 0 10-1.651.202c.592 4.827 1.597 9.438 2.99 13.705.325.996 1.288 1.81 2.586 1.597 1.154-.19 1.973-1.116 1.99-2.287.022-1.714.077-3.446.162-5.168a13.564 13.564 0 002.487 1.523v12.081c0 2.53.706 5.003 2.043 7.153l.031-.02a6.194 6.194 0 002.209 3.834 6.188 6.188 0 003.826 1.393 6.42 6.42 0 008.875 2.17.832.832 0 00-.873-1.416 4.752 4.752 0 01-6.144-1.006c.37-.108.73-.251 1.077-.428a3.679 3.679 0 005.153 0c.884.45 1.859.682 2.839.682a6.192 6.192 0 003.923-1.395 6.192 6.192 0 002.191-3.737 13.536 13.536 0 002.091-7.23v-12.08a13.57 13.57 0 002.488-1.525c.084 1.723.139 3.455.162 5.17.016 1.17.913 2.314 2.362 2.314 1.008 0 1.889-.63 2.214-1.625 4.494-13.775 3.51-26.9 3.466-27.45zM45.8 1.86a3.611 3.611 0 013.295.493 3.68 3.68 0 011.53 2.542c-.832.47-2.628 1.565-4.664 3.293-2.51 2.131-5.86 5.664-7.657 10.443a13.684 13.684 0 00-5.217-3.732C34.378 11.731 38.096 4.476 45.8 1.86zm-2.425 15.943a13.32 13.32 0 00-3.027.236 21.932 21.932 0 012.51-4.185c.19 1.296.363 2.616.517 3.95zM10.047 8.19C8.012 6.461 6.216 5.366 5.384 4.896a3.68 3.68 0 011.53-2.542 3.611 3.611 0 013.295-.493c7.704 2.616 11.422 9.871 12.713 13.04a13.68 13.68 0 00-5.217 3.731c-1.797-4.779-5.147-8.312-7.657-10.443zm5.612 9.85a13.31 13.31 0 00-3.026-.235c.154-1.333.327-2.654.517-3.949a21.927 21.927 0 012.51 4.184zm-1.243 8.545c-1.358-.752-3.066-2.044-4.302-4.168 1.1.222 2.755.706 4.688 1.76a13.552 13.552 0 00-.386 2.409zm-5.031-5.967c.012-.12.151-.725.747-.836 1.726-.32 4.159-.578 6.513.246a13.584 13.584 0 00-1.325 2.541c-2.682-1.412-4.87-1.829-5.935-1.951zm7.363 23.923a11.873 11.873 0 01-.703-4.024v-12.98c0-6.593 5.364-11.957 11.958-11.957 4.586 0 8.578 2.596 10.583 6.396-.94-.24-6.647-.101-6.647 6.065v10.658c-.081-.025-.163-.05-.244-.073.017-.152.027-.303.027-.453 0-1.359-.75-1.933-1.378-2.176-.673-.26-1.483-.26-2.341-.26-.858 0-1.669 0-2.342.26-.628.243-1.378.817-1.378 2.176 0 .15.01.301.028.453-.082.024-.163.048-.245.074V28.04a6.117 6.117 0 00-4.866-5.966.832.832 0 00-.336 1.629 4.447 4.447 0 013.539 4.337v11.314c-1.936.914-3.724 2.264-4.632 3.379a6.195 6.195 0 00-1.023 1.807zm12.153-4.02c-.278.217-.585.35-.898.35-.313 0-.62-.133-.897-.35.013-.026.2-.336.003-.715l-.585-1.236c-.202-.45-.541-.45-.577-.457.007-.563.147-.712 2.056-.712s2.048.15 2.056.713c-.035.007-.314-.036-.576.456l-.584 1.236c-.207.38-.01.689.002.715zm-9.186 9.674a4.562 4.562 0 01-.654-6.41c1.048-1.288 3.515-2.942 5.73-3.567.507 1.018 1.355 1.876 2.377 2.189v5.41c-.335.7-.693 1.294-1.042 1.723a4.562 4.562 0 01-6.41.655zm8.288 1.392c-.428 0-.835-.134-1.172-.374.206-.192.402-.398.584-.622a8.14 8.14 0 00.588-.831c.193.31.39.589.587.831.183.224.379.43.584.62a2.015 2.015 0 01-1.171.377zm8.287-1.392a4.562 4.562 0 01-6.41-.655c-.352-.432-.713-1.031-1.05-1.737v-5.394c1.026-.311 1.877-1.171 2.384-2.191 2.216.623 4.673 2.267 5.731 3.566a4.562 4.562 0 01-.654 6.41zm3.67-9.678c0 1.38-.24 2.738-.702 4.023a6.188 6.188 0 00-1.023-1.806c-.916-1.124-2.699-2.47-4.632-3.381V28.04a4.433 4.433 0 014.428-4.427c.457 0 .906.07 1.338.21a11.91 11.91 0 01.592 3.714v12.979zm-.6-20.49c2.36-.824 4.794-.555 6.514-.245.615.111.735.716.747.836-1.065.122-3.253.539-5.936 1.951a13.596 13.596 0 00-1.325-2.541zm2.23 6.558a13.55 13.55 0 00-.386-2.407c1.921-1.046 3.58-1.532 4.684-1.755-1.236 2.121-2.944 3.412-4.298 4.162zm5.678 5.67c-.169.516-.621.489-.756.468-.133-.02-.568-.128-.575-.664-.03-2.19-.11-4.409-.238-6.6a12.577 12.577 0 002.392-3.742 2.61 2.61 0 00-.103-2.224 2.603 2.603 0 00-1.771-1.338 17.137 17.137 0 00-1.155-.203 126.788 126.788 0 00-.787-5.81c2.415-2.674 5.012-4.477 6.454-5.37.142 3.656.17 14.351-3.461 25.483z"/><path d="M28 17.242c-.712 0-1.425.074-2.117.219a.838.838 0 00-.643.985c.155.822.927.655.985.643A8.661 8.661 0 0128 18.905a.832.832 0 000-1.663zm7.758 3.55a10.343 10.343 0 00-4.896-3.145.832.832 0 00-.465 1.598 8.677 8.677 0 014.108 2.641.84.84 0 001.174.08c.363-.28.382-.828.08-1.174zm-16.573 6.041a2.76 2.76 0 00-2.757 2.757 2.76 2.76 0 002.757 2.756 2.76 2.76 0 002.757-2.756 2.76 2.76 0 00-2.757-2.757zm0 3.85a1.095 1.095 0 010-2.187 1.095 1.095 0 010 2.187zm17.63-3.85a2.76 2.76 0 00-2.757 2.757 2.76 2.76 0 002.757 2.756 2.76 2.76 0 002.757-2.756 2.76 2.76 0 00-2.757-2.757zm0 3.85a1.095 1.095 0 010-2.187 1.095 1.095 0 010 2.187z"/></g></symbol><symbol id="icon-11-aquarius"><path d="M16.206 35.484a.832.832 0 00-.832.832v2.051a.832.832 0 001.663 0v-2.051a.832.832 0 00-.831-.832z"/><path d="M55.17 10.322c-.763-1.773-2-3.277-3.483-4.235-1.46-.941-3.066-1.303-4.548-1.03a14.352 14.352 0 00-2.344-1.192 14.097 14.097 0 00-10.86.15c-4.123 1.776-9.318 6.287-12.444 10.79-1.145-.22-2.262-.115-3.284.325-1.829.787-3.09 2.532-3.553 4.913-.438 2.25-.106 4.827.932 7.263a8.844 8.844 0 00-.212 1.923v4.428a.832.832 0 001.664 0v-4.428c0-2.094.915-4.084 2.51-5.459a7.148 7.148 0 013.566-1.657 9.26 9.26 0 011.392 3.08s-2.903-.02-4.027 2.59c-.197.457-.269.95-.269 1.446v15.05c0 .017-.01 1.834-.917 3.647-1.181 2.362-3.297 3.56-6.29 3.56-3.975 0-7.208-3.234-7.208-7.208v-2.99a1.588 1.588 0 013.173.001v2.99a4.04 4.04 0 004.035 4.034 4.04 4.04 0 004.035-4.035v-3.192a.832.832 0 00-1.663 0v2.5H10.63V41.29a3.253 3.253 0 00-3.25-3.25 3.253 3.253 0 00-3.249 3.25v2.297H3.05A3.052 3.052 0 000 46.636v.4a3.053 3.053 0 003.05 3.05h.812a.832.832 0 100-1.664H3.05a1.387 1.387 0 01-1.386-1.386v-.4c0-.765.622-1.387 1.386-1.387h1.137c.485 4.436 4.253 7.9 8.816 7.9 3.542 0 5.647-1.459 6.892-3.065l1.676-.005c1.349 0 3.61-.65 3.61-5.004V34.203a5.286 5.286 0 001.094-.335c1.828-.787 3.09-2.531 3.553-4.912.44-2.265.102-4.862-.953-7.313-1.055-2.45-2.71-4.48-4.657-5.718a8.931 8.931 0 00-1.07-.581c2.988-4.135 7.699-8.188 11.446-9.801a12.444 12.444 0 019.586-.133 12.445 12.445 0 016.873 6.685c2.731 6.345-.208 13.728-6.552 16.46-3.277 1.41-8.651 2.113-13.374 1.748a.83.83 0 10-.128 1.658c.895.07 1.806.103 2.72.103 4.234 0 8.514-.723 11.44-1.982 4.456-1.919 7.428-5.864 8.306-10.297 2.544-1.84 3.29-5.784 1.706-9.463zM15.164 45.25c-.372.824-1.2 1.4-2.162 1.4-.961 0-1.79-.576-2.161-1.4h4.323zm4.617-23.682c.083-.94.383-1.468.519-1.577.232-.04.82.167 1.503.711a8.755 8.755 0 00-2.022.866zm4.411 7.465c-.263.452-.674 1.303-.674 2.201v13.841c0 3.341-1.466 3.341-1.95 3.341l-.667.002c.96-2.072.972-4.053.972-4.14V29.229c0-.29.053-.576.157-.848a2.39 2.39 0 012.218-1.524l.471-.001c0 1.326-.527 2.177-.527 2.177zm-.866-11.704c1.668 1.06 3.096 2.825 4.02 4.972.924 2.147 1.226 4.397.848 6.337-.355 1.825-1.27 3.14-2.578 3.703-.142.06-.287.112-.435.154v-1.26c0-.491.282-1.109.523-1.489l.006-.01c.313-.498.533-1.174.625-1.968.168-1.45-.114-3.115-.792-4.69-.678-1.576-1.695-2.925-2.863-3.8-1.129-.845-2.265-1.15-3.04-.817-1.084.467-1.691 2.259-1.51 4.35a8.907 8.907 0 00-1.62 2.082c-.414-1.569-.497-3.132-.224-4.533.355-1.824 1.27-3.14 2.578-3.702 1.308-.563 2.892-.325 4.462.671zm30.41-.407a14.116 14.116 0 00-1.156-5.485 14.166 14.166 0 00-3.177-4.606c1.707.527 3.339 2.056 4.24 4.149.904 2.102.885 4.342.093 5.942z"/><path d="M7.345 29.38c-1.832 0-3.214 1.31-3.214 3.048v1.49c0 1.768 1.367 3.05 3.25 3.05s3.25-1.282 3.25-3.05v-1.49c0-1.71-1.444-3.049-3.286-3.049zm1.622 4.539c0 .855-.608 1.386-1.586 1.386-.979 0-1.587-.531-1.587-1.386v-1.49c0-.817.638-1.387 1.551-1.387.94 0 1.622.583 1.622 1.386v1.49zM38.005 7.095A.831.831 0 0037 6.483c-.592.144-1.18.34-1.749.586a.832.832 0 00-.435 1.092.85.85 0 001.093.435c.494-.178.982-.375 1.484-.497a.831.831 0 00.612-1.004zm9.04 2.088A10.824 10.824 0 0039.54 6.18a.832.832 0 100 1.663c2.38 0 4.591.953 6.357 2.543.505.456 1.012.144 1.175-.027a.832.832 0 00-.027-1.176z"/></symbol><symbol id="icon-12-pisces"><g clip-path="url(#clip0)"><path d="M24.03 11.342a3.597 3.597 0 00-4.544 2.303 3.606 3.606 0 002.303 4.543c.58.19 1.417.299 2.298.299 1.131 0 3.823-.185 4.385-1.901.735-2.246-3.013-4.776-4.442-5.244zm2.85 4.723c-.102.314-1.13.748-2.793.748-.69 0-1.372-.083-1.777-.215a1.93 1.93 0 01.599-3.762c.203 0 .405.033.6.097.554.181 1.543.769 2.362 1.541.858.81 1.074 1.395 1.01 1.591zM27.942 1.95a32.86 32.86 0 00-1.258-.243.836.836 0 10-.286 1.65c.4.069.797.172 1.194.23.526.078.909-.25.993-.643a.837.837 0 00-.643-.993zm6.356 35.906c-.579-.19-1.417-.299-2.298-.299-1.131 0-3.823.186-4.384 1.901-.736 2.247 3.012 4.776 4.442 5.244A3.597 3.597 0 0036.6 42.4a3.606 3.606 0 00-2.303-4.544zm.712 4.023a1.924 1.924 0 01-2.432 1.232c-.554-.181-1.543-.769-2.362-1.541-.858-.81-1.074-1.395-1.01-1.591.103-.313 1.131-.748 2.794-.748.69 0 1.372.083 1.778.216a1.93 1.93 0 011.232 2.432zm3.041-25.373c-.5-.044-1.012-.084-1.52-.12a.836.836 0 10-.117 1.67c.5.035 1.002.075 1.493.117.025.002.795.12.906-.762.058-.458-.301-.866-.762-.905zm-4.168-.272c-.747-.034-1.52-.064-2.513-.096l-.04-.002c-.485-.01-.962-.02-1.431-.028a.837.837 0 00-.03 1.674c.467.008.941.017 1.42.028h.03c.98.033 1.747.062 2.487.097.013 0 .793 0 .875-.798.046-.46-.336-.853-.798-.875z"/><path d="M55.349 20.327c-1.218-1.127-3.204-2.655-5.75-3.538a.837.837 0 10-.548 1.582c2.272.788 4.06 2.167 5.16 3.185a.33.33 0 01.092.37.333.333 0 01-.307.231l-4.406.286a.837.837 0 00-.763.65l-.89 3.932a.329.329 0 01-.295.269.33.33 0 01-.355-.191 85.737 85.737 0 00-2.516-4.602c.213.037.924.151 1.063.151.835 0 1.61-.459 2.072-1.227.517-.86.544-1.947.072-2.835-.23-.43-.482-.87-.749-1.304-1.212-1.972-3.72-5.405-7.77-8.09V9.19a5.948 5.948 0 00-2.2-3.21c-1.917-1.414-4.256-2.543-6.951-3.353a.837.837 0 00-.482 1.603 22.8 22.8 0 016.683 3.292 23.554 23.554 0 00-10.214-2.347c-1.925 0-3.836.244-5.692.724l.538-.625a5.629 5.629 0 013.084-1.824.837.837 0 10-.346-1.637 7.31 7.31 0 00-4.006 2.37l-2.356 2.736c-4.446 1.81-8.422 5.036-11.106 9.064-.024.036-.798 1.07-.118 2.538.157.34.498.734 1.11 1.01-.059.643.072 1.181.39 1.605.29.384.87.84 1.993.84.459 0 .847-.076.985-.107 2.805-.4 5.456-.601 7.887-.601h.032a180.5 180.5 0 016.811-.122c1.797 0 3.65.022 5.654.067 3.34.11 6.955.278 11.467.944.898 1.496 2.113 3.597 3.17 5.698.35.696.902 1.18 2.053 1.1.861-.06 1.534-.717 1.725-1.56l.752-3.322 3.782-.245a1.995 1.995 0 001.776-1.343c.275-.774.071-1.6-.531-2.158zM12.354 13.9c.801 0 1.453.652 1.453 1.453 0 .802-.652 1.454-1.453 1.454a1.455 1.455 0 01-1.454-1.454c0-.801.652-1.453 1.454-1.453zM31.2 19.539a254.39 254.39 0 00-5.7-.067c-2.427 0-4.67.04-6.858.122-2.512 0-5.252.21-8.145.622-.026.004-1.104.296-1.367-.087-.076-.11-.113-.412.04-.945a.836.836 0 00-.655-1.055c-.272-.05-.621-.155-.738-.38-.125-.241-.032-.656.067-.899.433-.645.903-1.268 1.404-1.866a3.131 3.131 0 003.105 3.499 3.131 3.131 0 003.127-3.128 3.131 3.131 0 00-3.524-3.102c2.34-1.996 5.07-3.527 7.956-4.414a21.034 21.034 0 016.382-.99c4.53 0 8.117 1.418 10.335 2.611 4.918 2.59 7.859 6.564 9.173 8.702.249.405.483.814.697 1.215.237.445.114.89-.029 1.186-.181.375-.502.451-.76.405-5.971-1.078-10.438-1.295-14.51-1.429z"/><path d="M12.946 14.763a.843.843 0 00-.593-.246.842.842 0 00-.837.838.84.84 0 00.837.837c.221 0 .437-.09.593-.246a.844.844 0 00.244-.591c0-.22-.09-.437-.244-.592zm6.727 23.129c-.5-.034-1.002-.074-1.493-.116a.838.838 0 00-.144 1.668c.5.043 1.012.083 1.52.118.02.002.815 0 .893-.776.047-.46-.315-.861-.776-.894zm6.545.275c-.467-.008-.94-.017-1.42-.028h-.03c-.98-.033-1.747-.062-2.487-.097a.837.837 0 10-.077 1.672c.747.035 1.521.065 2.513.097l.04.002c.486.01.962.02 1.431.028.006 0 .796 0 .852-.822.032-.461-.36-.843-.822-.852z"/><path d="M49.707 37.58c-.157-.34-.498-.735-1.11-1.01.059-.645-.071-1.182-.39-1.606-.289-.384-.869-.84-1.993-.84a4.69 4.69 0 00-.984.107c-2.805.4-5.457.601-7.888.601h-.031c-2.172.082-4.4.122-6.812.122-1.797 0-3.649-.022-5.654-.067-3.34-.11-6.955-.279-11.466-.944-.899-1.496-2.114-3.597-3.17-5.698-.35-.696-.903-1.18-2.053-1.1-.862.06-1.535.717-1.726 1.56l-.752 3.322-3.782.245A1.996 1.996 0 00.12 33.615c-.274.774-.07 1.6.532 2.158 1.218 1.127 3.204 2.655 5.75 3.538a.836.836 0 10.548-1.582c-2.272-.788-4.06-2.167-5.161-3.185a.33.33 0 01-.091-.37.333.333 0 01.307-.231l4.406-.286a.837.837 0 00.762-.65l.89-3.932a.329.329 0 01.296-.269.33.33 0 01.354.191 85.66 85.66 0 002.517 4.601c-.213-.036-.924-.15-1.063-.15-.836 0-1.61.459-2.072 1.227a2.893 2.893 0 00-.072 2.834c.23.432.481.87.748 1.305 1.212 1.972 3.721 5.404 7.77 8.09l.001.006a5.948 5.948 0 002.2 3.21c1.917 1.414 4.255 2.543 6.95 3.353a.837.837 0 00.483-1.603 22.801 22.801 0 01-6.683-3.292 23.554 23.554 0 0010.214 2.347c1.925 0 3.835-.244 5.691-.724l-.538.624a5.63 5.63 0 01-3.084 1.825.837.837 0 10.346 1.637 7.31 7.31 0 004.007-2.37l2.355-2.736c4.447-1.81 8.422-5.036 11.107-9.064.023-.036.797-1.07.117-2.538zm-5.973 4.468a1.455 1.455 0 01-1.454-1.454 1.455 1.455 0 012.908 0c0 .802-.652 1.454-1.454 1.454zm4.422-2.798c-.41.61-.853 1.2-1.324 1.77a3.131 3.131 0 00-3.098-3.552 3.131 3.131 0 00-3.128 3.126 3.131 3.131 0 003.629 3.088c-2.382 2.076-5.183 3.668-8.148 4.579a21.05 21.05 0 01-6.382.99 21.913 21.913 0 01-10.335-2.61c-4.918-2.59-7.859-6.565-9.173-8.703a22.847 22.847 0 01-.697-1.215c-.237-.445-.114-.89.03-1.186.18-.375.501-.45.759-.404 5.971 1.077 10.438 1.294 14.51 1.428 2.026.045 3.89.067 5.7.067 2.427 0 4.67-.04 6.858-.122 2.512 0 5.252-.21 8.145-.623.026-.003 1.104-.295 1.367.088.076.11.113.412-.04.945a.836.836 0 00.655 1.055c.272.05.621.155.738.38.125.241.033.657-.066.899z"/><path d="M44.325 40.003a.842.842 0 00-.592-.245.843.843 0 00-.592.245.844.844 0 00-.244.591c0 .22.089.437.244.592a.843.843 0 00.592.246.842.842 0 00.838-.838.84.84 0 00-.246-.591z"/></g></symbol><symbol id="icon-2-taurus"><g clip-path="url(#clip0)"><path d="M27.363 42.316a3.155 3.155 0 00-1.464-1.94c-.657-.387-1.588-.617-2.49-.617-1.26 0-2.25.452-2.714 1.242-.934 1.589.537 4 1.984 4.851a3.175 3.175 0 004.684-3.536zm-1.77 1.564a1.51 1.51 0 01-2.071.538c-.909-.534-1.716-2.026-1.393-2.574.15-.256.653-.422 1.28-.422.6 0 1.247.152 1.646.387a1.5 1.5 0 01.698.924c.102.392.045.799-.16 1.148z"/><path d="M53.223 4.306a2.444 2.444 0 00-2.861-.992 2.436 2.436 0 00-1.67 2.514c.398 5.541-2.608 8.759-8.93 9.568-4.62-3.293-11.307-3.282-11.762-3.276-.55-.006-10.235-.022-14.326 5.825a9.545 9.545 0 00-1.563 3.75c-3.96-1.204-8.602-3.374-10.013-7.12-.983-2.606-.286-5.755 2.07-9.359.32-.488.8-.373.939-.326.137.046.584.243.542.819-.388 5.402 2.1 9.091 7.197 10.668a.832.832 0 00.492-1.589c-4.332-1.34-6.36-4.355-6.03-8.96a2.436 2.436 0 00-1.67-2.514 2.444 2.444 0 00-2.861.992C.113 8.379-.64 12.03.54 15.162c1.113 2.954 3.812 5.025 6.782 6.464-.881 1.255-1.59 2.747-2.11 4.45a3.123 3.123 0 00.396 2.667 3.128 3.128 0 002.324 1.375c.47.043 1.011.073 1.595.073 1.08 0 2.31-.105 3.519-.43 1.794 4.893 1.297 3.18 4.934 11.14a7.436 7.436 0 001.971 6.924c1.025 2.959 3.85 4.995 6.997 4.995h1.741a7.379 7.379 0 005.11-2.048 4.767 4.767 0 006.133-4.56 4.76 4.76 0 00-2.09-3.939 7.383 7.383 0 00-.08-.814c1.306-2.855 4.062-8.506 5.19-11.697 1.21.324 2.438.429 3.52.429.583 0 1.123-.03 1.594-.073a3.129 3.129 0 002.324-1.375c.53-.787.674-1.758.396-2.666a17.492 17.492 0 00-1.01-2.582.832.832 0 10-1.493.733c.35.713.657 1.498.912 2.335a1.472 1.472 0 01-1.28 1.899c-1.186.107-2.86.13-4.466-.288.086-.317.164-.629.233-.937.773.105 2.3.192 2.327.192.56 0 1.07-.277 1.376-.75a1.634 1.634 0 00.085-1.641c-.39-.77-.894-1.56-1.458-2.297 3.904-1.408 8.005-3.754 9.446-7.579 1.18-3.13.428-6.783-2.236-10.856zM11.67 23.299l.257.076a13.76 13.76 0 00.105 2.223 25.1 25.1 0 01-2.006.166 13.532 13.532 0 011.644-2.465zm-3.587 5.163a1.472 1.472 0 01-1.28-1.899c.508-1.66 1.205-3.085 2.074-4.247.37.15.741.292 1.11.425a14.957 14.957 0 00-1.458 2.297 1.633 1.633 0 00.086 1.64c.306.474.816.75 1.376.75.026 0 1.554-.086 2.327-.19.068.307.146.62.232.935-1.605.42-3.28.396-4.467.289zM28.69 51.157h-1.74a5.737 5.737 0 01-3.748-1.406 7.435 7.435 0 002.048.288h5.14a7.45 7.45 0 001.703-.198 4.8 4.8 0 00.126.103 5.719 5.719 0 01-3.528 1.213zm9.579-4.945c-.094 3.302-3.22 3.096-3.281 3.093a7.5 7.5 0 00.698-1.478 7.457 7.457 0 001.952-3.486c.396.52.651 1.169.631 1.871zm2.888-16.375s-.953 2.27-4.158 9.293a7.505 7.505 0 00-1.694-2.154.832.832 0 00-1.098 1.25 5.8 5.8 0 011.98 4.352 5.806 5.806 0 01-3.589 5.359 3.08 3.08 0 01-.526-1.725v-.007c.311-.072.61-.19.888-.353.695-.409 1.395-1.182 1.826-2.02.55-1.064.606-2.07.158-2.831-.464-.79-1.454-1.243-2.714-1.243-.903 0-1.833.23-2.49.617a3.154 3.154 0 00-1.465 1.94 3.157 3.157 0 00.337 2.408 3.188 3.188 0 001.799 1.422c0 .022-.055.957.507 2.205-.174.016-.35.025-.528.025h-5.14a5.804 5.804 0 01-5.798-5.797c0-3.197 2.6-5.797 5.797-5.797h2.57a.832.832 0 100-1.663h-2.57a7.463 7.463 0 00-6.412 3.652c-3.07-6.728-3.993-8.933-3.993-8.933-1.741-4.584-1.677-8.262.19-10.934 3.613-5.171 12.864-5.122 12.955-5.12h.021c.093-.003 9.33-.063 12.953 5.116 1.87 2.672 1.935 6.353.194 10.938zM30.73 44.492a1.515 1.515 0 01-.685-.612 1.504 1.504 0 01-.16-1.147 1.5 1.5 0 01.697-.924c.4-.235 1.047-.387 1.647-.387.566 0 1.03.135 1.225.35a4.786 4.786 0 00-2.724 2.72zm13.237-18.894c.096-.77.131-1.511.105-2.223l.257-.076a13.53 13.53 0 011.644 2.465 25.063 25.063 0 01-2.006-.166zm9.934-11.022c-1.411 3.745-6.054 5.915-10.014 7.118a9.542 9.542 0 00-2.487-4.878c3.282-.651 5.702-2.013 7.205-4.062 1.36-1.853 1.948-4.224 1.745-7.045-.042-.576.404-.772.542-.819.14-.047.618-.162.938.326 2.357 3.604 3.054 6.753 2.071 9.36z"/><path d="M32.821 35.527a7.395 7.395 0 00-2.43-.41.832.832 0 000 1.664c.645 0 1.26.175 1.885.317.714.162.94-.17 1.058-.513a.832.832 0 00-.513-1.058zM33 16.058a21.99 21.99 0 00-4.945-.612l-.042.001h-.067c-.585 0-1.25.035-1.923.102a.832.832 0 00.166 1.656 18.011 18.011 0 011.748-.095h.126c1.38 0 3.08.212 4.548.565.065.016.786.234 1.003-.614A.828.828 0 0033 16.058zm4.175 1.621c-.418-.25-.877-.484-1.365-.697a.832.832 0 00-.664 1.525c.423.185.818.386 1.175.6.134.08.697.392 1.14-.287.252-.385.108-.905-.286-1.141zM19.41 25.23A2.774 2.774 0 0016.638 28a2.774 2.774 0 002.77 2.771 2.774 2.774 0 002.771-2.77 2.774 2.774 0 00-2.77-2.771zm0 3.878A1.109 1.109 0 1120.516 28c0 .61-.497 1.107-1.108 1.107zm17.18-3.878A2.774 2.774 0 0033.82 28a2.774 2.774 0 002.77 2.771 2.774 2.774 0 002.771-2.77 2.774 2.774 0 00-2.77-2.771zm0 3.878a1.109 1.109 0 010-2.215 1.109 1.109 0 010 2.215z"/></g></symbol><symbol id="icon-3-gemini"><g clip-path="url(#clip0)"><path d="M12.626 51.594a13.252 13.252 0 01-1.095-.727.832.832 0 00-.988 1.338c.396.292.808.574 1.233.819.515.296.984-.029 1.14-.29a.832.832 0 00-.29-1.14zm12.387-9.1h-4.409a3.08 3.08 0 001.767-2.784v-2.245a3.08 3.08 0 00-3.077-3.077 3.08 3.08 0 00-3.077 3.077v2.245a3.08 3.08 0 001.767 2.784h-4.409c-1.045 0-1.896.85-1.896 1.896 0 4.199 3.416 7.615 7.615 7.615s7.615-3.416 7.615-7.615c0-1.046-.85-1.896-1.896-1.896zM17.88 39.71v-2.245a1.415 1.415 0 012.828 0v2.245a1.415 1.415 0 01-2.828 0zm-2.338 4.447h7.504v.458c0 .704-.573 1.277-1.277 1.277h-4.95a1.278 1.278 0 01-1.277-1.277v-.458zm3.752 6.184a5.958 5.958 0 01-5.951-5.951c0-.128.104-.233.232-.233h.304v.458a2.943 2.943 0 002.94 2.94h4.95a2.943 2.943 0 002.94-2.94v-.458h.304c.128 0 .232.105.232.233a5.958 5.958 0 01-5.951 5.951zm24.341-31.36a2.703 2.703 0 00-2.7 2.7c0 1.49 1.21 2.7 2.7 2.7 1.489 0 2.7-1.21 2.7-2.7 0-1.489-1.211-2.7-2.7-2.7zm0 3.737a1.038 1.038 0 010-2.074 1.038 1.038 0 010 2.074z"/><path d="M54.168 22.952a.832.832 0 00-.831.831 3.682 3.682 0 01-2.845 3.581v-7.14s1.23.267 2.177 1.446c.446.556 1.013.304 1.159.202a.832.832 0 00.201-1.16 5.36 5.36 0 00-1.324-1.316v-3.301c0-4.892-2.42-7.878-4.45-9.521-1.86-1.508-3.714-2.175-4.274-2.354A15.69 15.69 0 0034.376.91c-6.561 0-12.483 4.158-14.736 10.347a.831.831 0 101.563.569c2.014-5.535 7.308-9.254 13.173-9.254 2.992 0 5.828.931 8.238 2.698-.659 1.82-1.292 2.1-2.456 2.614-1.051.464-2.491 1.1-4.393 2.98-.75.74-1.38 1.691-2.047 2.699-1.117 1.686-2.27 3.425-4.104 4.418a13.473 13.473 0 00-3.045-1.466 15.69 15.69 0 00-9.605-3.311c-8.642 0-15.673 7.03-15.673 15.673v.675a.832.832 0 001.663 0v-.675c0-7.725 6.285-14.01 14.01-14.01 2.992 0 5.828.93 8.238 2.697-.659 1.82-1.292 2.1-2.456 2.614-1.051.465-2.491 1.1-4.393 2.98-.75.74-1.38 1.692-2.047 2.7-1.187 1.79-2.414 3.643-4.456 4.596-1.298.606-3.072.52-4.95.43-.833-.04-1.694-.082-2.573-.07-.449.007-.86.026-1.258.06C2.94 30.887-1 31.57-1 36.079c0 1.812.907 3.415 2.29 4.38v1.276c0 1.268.41 2.497 1.152 3.46a5.183 5.183 0 002.697 1.844c.629 1.22 1.452 2.341 2.395 3.384.448.495 1.015.187 1.176.036a.832.832 0 00.036-1.176 13.058 13.058 0 01-3.574-8.977v-7.823a58.62 58.62 0 011.649.063c.698.033 2.16.066 2.216.066a2.68 2.68 0 00-.372 1.365c0 1.489 1.211 2.7 2.7 2.7s2.7-1.211 2.7-2.7c0-.908-.45-1.712-1.14-2.202 2.24-1.185 3.58-3.204 4.768-4.998.283-.427.558-.842.834-1.227.03 1.069.2 2.188 2.043 3.551.997.738 2.325.661 3.732.58.97-.056 1.973-.114 2.838.108.526.134 1.149.578 1.808 1.047.745.531 1.553 1.106 2.468 1.43v8.04c0 7.236-5.886 13.123-13.122 13.123-1.568 0-3.104-.278-4.565-.824a.831.831 0 10-.582 1.557c1.647.617 3.38.93 5.147.93 5.73 0 10.71-3.277 13.163-8.055 1.089-.324 3.004-1.423 3.74-4.25 6.635 0 11.219-3.267 13.672-8.045a5.184 5.184 0 002.685-1.84c.742-.963 1.151-2.192 1.151-3.461v-1.274A5.336 5.336 0 0055 23.783a.832.832 0 00-.832-.831zM.663 36.078c0-3.106 2.82-3.566 2.845-3.568v7.149a3.682 3.682 0 01-2.845-3.58zm2.291 5.656v-.5c.193.053.39.095.592.125.079 1.11.284 2.2.606 3.251-.14-.132-1.198-1.122-1.198-2.876zm8.411-6.721a1.038 1.038 0 010-2.074 1.038 1.038 0 010 2.074zm18.548-5.532c-.795-.553-1.534-1.094-2.36-1.305-1.117-.285-2.301-.217-3.347-.156-1.097.063-2.134.123-2.647-.257-1.35-.998-1.358-1.542-1.375-2.53a8.359 8.359 0 00-.114-1.41c1.408-1.266 2.473-1.737 3.348-2.123 1.447-.639 2.428-1.175 3.272-3.37 1.917.784 6.94 3.466 6.94 10.06v2.468s-1.382.247-3.717-1.377zm3.716 12.254c0 1.79-1.05 2.737-1.187 2.866.316-1.037.52-2.122.6-3.242.2-.03.396-.072.587-.123v.5zm-.55-2.076v-7.14s2.846.305 2.846 3.56a3.682 3.682 0 01-2.845 3.58zm4.444-4.399h.658a2.943 2.943 0 002.94-2.94v-.457h.304c.128 0 .232.104.232.232a5.96 5.96 0 01-4.366 5.735 5.314 5.314 0 00.232-2.57zm1.935-2.94c0 .704-.573 1.277-1.277 1.277h-1.208a5.385 5.385 0 00-1.451-1.734h3.936v.457zm-3.752-3.49a1.39 1.39 0 01-.413-.065v-.375c0-1.57-.25-2.943-.656-4.14a1.405 1.405 0 011.069-.494c.78 0 1.414.634 1.414 1.414v2.246c0 .78-.634 1.414-1.414 1.414zm0 12.303c-.137 0-.275-.003-.413-.008v-.664c.32-.223.616-.48.88-.767 3.982-.242 7.148-3.557 7.148-7.599 0-1.045-.85-1.896-1.896-1.896h-4.409a3.08 3.08 0 001.767-2.783V25.17a3.08 3.08 0 00-3.077-3.077c-.64 0-1.247.197-1.754.55a11.933 11.933 0 00-2.892-3.595c1.815-1.207 2.99-2.975 4.045-4.567.283-.427.558-.842.834-1.227.03 1.069.2 2.188 2.042 3.551.998.738 2.327.662 3.733.58.97-.056 1.973-.114 2.838.108.526.134 1.149.578 1.808 1.047.745.531 1.553 1.106 2.468 1.43v8.04c0 7.236-5.886 13.123-13.122 13.123zm11.619-23.947c-.781-.573-1.534-1.093-2.36-1.305-1.116-.285-2.301-.217-3.346-.156-1.098.063-2.135.123-2.648-.257-1.35-.998-1.358-1.542-1.374-2.53a8.358 8.358 0 00-.114-1.409c1.407-1.267 2.472-1.737 3.347-2.124 1.447-.639 2.428-1.175 3.272-3.37 1.917.784 6.94 3.466 6.94 10.06v2.468s-1.974-.1-3.717-1.377zm3.717 12.254c0 1.97-1.052 2.737-1.188 2.866a14.7 14.7 0 00.6-3.242c.2-.03.396-.071.588-.123v.5z"/><path d="M26.223 31.276a2.703 2.703 0 00-2.7 2.7c0 1.489 1.21 2.7 2.7 2.7 1.489 0 2.7-1.211 2.7-2.7s-1.211-2.7-2.7-2.7zm0 3.737a1.038 1.038 0 010-2.074 1.038 1.038 0 010 2.074zM18.19 20.799a.832.832 0 00-1.175-.007 12.4 12.4 0 00-1.036 1.17.83.83 0 00.14 1.169c.543.418 1.004.068 1.168-.14.305-.39.599-.721.897-1.016a.832.832 0 00.007-1.176zm-2.504 2.988a.832.832 0 00-1.153.233c-.975 1.473-1.896 2.863-3.089 3.42-.416.194-.572.678-.402 1.105.325.813.992.455 1.105.402 1.618-.755 2.665-2.335 3.773-4.008a.832.832 0 00-.234-1.152z"/></g></symbol><symbol id="icon-4-cancer"><path d="M10.197 10.905a.831.831 0 00-1.174.082c-.293.337-.562.673-.801.999a.832.832 0 00.18 1.162.848.848 0 001.162-.18c.235-.27.452-.587.714-.89a.832.832 0 00-.081-1.173z"/><path d="M55.223 30.248l-5.11-5.084a2.653 2.653 0 00-1.925-.828H43.34a9.695 9.695 0 00-.448-1.26l3.447-3.106a.832.832 0 00.113-.125 3.948 3.948 0 002.174-1.573c.825-1.185 1.358-3.221-.781-6.195-1.093-1.52-2.791-3.172-5.046-4.912a3.542 3.542 0 00-2.181-.744 3.585 3.585 0 00-2.941 1.535l-.983 1.412-5.846-4.072a.196.196 0 01-.084-.23.205.205 0 01.2-.162c2.233-.142 4.593.95 6.179 1.892a.832.832 0 10.849-1.43c-2.6-1.544-5.001-2.258-7.133-2.122a1.863 1.863 0 00-1.697 1.374c-.217.78.072 1.582.736 2.044l.522.363a3.009 3.009 0 00-.125 1.14c.128 1.74 1.55 3.692 4.228 5.803-.035.484.201.923.316 1.171a3.624 3.624 0 00-2.143-.699 3.65 3.65 0 00-3.4 2.333 49.833 49.833 0 00-2.59 0 3.65 3.65 0 00-3.4-2.333c-.801 0-1.542.26-2.144.7.115-.25.351-.748.316-1.173 2.678-2.11 4.1-4.062 4.228-5.803a3.008 3.008 0 00-.125-1.139l.522-.363a1.854 1.854 0 00.736-2.044 1.864 1.864 0 00-1.696-1.374c-3.43-.218-6.92 1.85-8.896 3.282-.104-.025-1.498-.52-3.045.64a31.12 31.12 0 00-2.401 2.01.832.832 0 101.126 1.224 34.784 34.784 0 012.291-1.918 1.896 1.896 0 011.46-.376c.523.081.979.365 1.282.8l2.527 3.63a1.9 1.9 0 01.305 1.48 1.895 1.895 0 01-.86 1.239c-2.144 1.341-5.453 3.131-7.847 3.13-.984 0-1.814-.302-2.344-1.064-.478-.686-.556-1.477-.24-2.417a.832.832 0 00-1.576-.53c-.49 1.454-.338 2.765.45 3.898a3.972 3.972 0 002.123 1.55l3.61 3.252a9.694 9.694 0 00-.447 1.262H7.81c-.757 0-1.441.319-1.926.829L.777 30.248A2.642 2.642 0 000 32.13c0 .712.276 1.38.777 1.881a2.642 2.642 0 001.88.777c.713 0 1.38-.276 1.882-.777l4.353-4.353h3.443c.025.218.055.435.089.653l-2.475.169a2.642 2.642 0 00-1.822.906l-.032.039c-.006-.01-4.762 5.431-4.762 5.431a.832.832 0 00.08 1.174c.158.137.671.376 1.174-.08l3.164-3.627a2.68 2.68 0 001.495 1.32L6.089 39.26a.99.99 0 01-.683.337.988.988 0 01-.723-.24.832.832 0 00-1.093 1.253c.487.425 1.03.647 1.93.647.711 0 1.357-.37 1.823-.903l4.047-4.64 2.678-.182c.075.154.152.307.232.46l-.961.148a2.64 2.64 0 00-1.74 1.057L7.285 43.05a2.642 2.642 0 00-.482 1.977 2.642 2.642 0 001.053 1.742 2.659 2.659 0 003.719-.572l3.642-4.964 2.673-.41c.185.179.373.353.564.522l-.64.138c-1.105.23-1.712 1.188-1.716 1.195l-3.916 6.065a2.641 2.641 0 00-.364 2.003c.15.696.56 1.29 1.156 1.675.433.28 2.553.898 3.678-.792l3.339-5.173 6.398-1.378-.005-.021a13.255 13.255 0 003.234 0l-.005.021 6.398 1.378 3.34 5.173c1.218 1.71 3.244 1.072 3.677.792a2.641 2.641 0 001.156-1.675c.15-.696.02-1.407-.364-2.003l-3.959-6.101a2.642 2.642 0 00-1.673-1.159l-.64-.138c.19-.169.379-.343.564-.523l2.673.41 3.642 4.965a2.658 2.658 0 003.719.572.832.832 0 00-.984-1.341.988.988 0 01-.74.179.99.99 0 01-.654-.393l-2.84-3.873a2.673 2.673 0 001.6-1.19l2.848 3.883a.83.83 0 101.341-.984L44.4 37.196a2.641 2.641 0 00-1.739-1.057l-.96-.148c.078-.153.156-.306.231-.46l2.678.182 4.047 4.64c.466.534 2.133 1.6 3.753.256 1.13-.937 1.22-2.648.256-3.753l-4.793-5.47a2.642 2.642 0 00-1.823-.907l-2.474-.169c.033-.217.063-.435.088-.653h3.443l4.354 4.354a2.641 2.641 0 001.88.776A2.647 2.647 0 0056 32.129c0-.712-.276-1.38-.777-1.88zm-51.86 2.586a.998.998 0 01-1.41-1.41l3.404-3.403a2.67 2.67 0 001.401 1.418l-3.395 3.395zm8.864-4.84H7.81a.998.998 0 010-1.994h4.52c-.07.56-.106 1.912-.104 1.994zm29.833-6.408a8.429 8.429 0 00-.62-.79c-.802-.899-1.793-1.637-2.993-2.226l.415-.374c1.898.974 3.567 1.568 4.991 1.774l-1.793 1.616zm-5.546-9.049l2.527-3.63a1.92 1.92 0 011.576-.823c.425 0 .828.138 1.166.398 2.826 2.18 7.295 6.228 5.477 8.84-.5.718-1.26 1.095-2.326 1.067-2.795-.074-7.174-2.7-7.866-3.134a1.896 1.896 0 01-.859-1.238 1.9 1.9 0 01.305-1.48zm.803 4.812l-.584.527c-.135-.045-.27-.088-.41-.13a3.617 3.617 0 00-.33-1.21c.063.044.955.598 1.325.813zM31.963 8.13l-.003-.034 3.784 2.637s-.804 1.183-.888 1.356c-2.32-1.985-2.816-3.312-2.893-3.96zm.733 7.973c1.093 0 1.982.889 1.982 1.981a1.984 1.984 0 01-1.982 1.982 1.984 1.984 0 01-1.982-1.982c0-1.093.89-1.981 1.982-1.981zm-9.39 0c1.093 0 1.982.889 1.982 1.981a1.984 1.984 0 01-1.982 1.982 1.984 1.984 0 01-1.982-1.982c0-1.093.89-1.981 1.982-1.981zm-2.16-4.014c-.084-.173-.888-1.357-.888-1.357l3.785-2.637c-.07.673-.567 2.003-2.897 3.994zm-1.838-2.722l-.983-1.412a3.631 3.631 0 00-.455-.535c1.83-1.232 4.573-2.682 7.167-2.517.105.007.173.061.2.161a.196.196 0 01-.084.232c-1.653 1.15-4.084 2.844-5.845 4.071zm.7 7.167c-.176.374-.29.782-.33 1.211-.139.042-.276.085-.41.13l-.585-.528a49.68 49.68 0 001.325-.813zm-7.862 3.433a10.17 10.17 0 001.311-.277c1.106-.305 2.338-.806 3.682-1.495l.415.374c-1.25.614-2.274 1.388-3.091 2.338a8.34 8.34 0 00-.524.676l-1.793-1.616zm-1.947 14.16a.998.998 0 01-1.062-.928.99.99 0 01.245-.721.99.99 0 01.682-.341l2.696-.184a18.5 18.5 0 00.614 1.957l-3.175.216zm.035 11.085a.998.998 0 01-1.394.214.99.99 0 01-.393-.652.99.99 0 01.18-.741l2.848-3.883a2.672 2.672 0 001.6 1.19l-2.841 3.872zm3.661-5.46a.988.988 0 01-.74-.183.99.99 0 01-.396-.65.998.998 0 01.834-1.138l1.606-.246c.405.628.848 1.234 1.327 1.813l-2.63.404zm1.36 10.974a.989.989 0 01-.629.432.988.988 0 01-1.182-.763.988.988 0 01.135-.75L16.19 45.6c.393.565.994.958 1.668 1.092l-2.605 4.035zm3.329-5.669a.998.998 0 01-1.184-.765.99.99 0 01.138-.749.99.99 0 01.626-.435l2.002-.431a14.958 14.958 0 002.709 1.456l-4.291.924zm21.227.542l2.612 4.046a.99.99 0 01.135.75.989.989 0 01-1.182.763.989.989 0 01-.628-.432l-2.605-4.035A2.673 2.673 0 0039.81 45.6zm-1.973-2.49a.99.99 0 01.626.434.99.99 0 01.139.75.998.998 0 01-1.185.764l-4.29-.924c.934-.382 1.84-.87 2.708-1.456l2.002.431zm4.571-5.328a.998.998 0 01.834 1.137.989.989 0 01-.397.65.988.988 0 01-.74.184l-2.63-.404c.48-.579.922-1.185 1.327-1.813l1.606.246zM28 43.493c-8.078 0-14.113-8.311-14.113-15.743 0-4.349 1.92-7.014 6.025-8.335a3.65 3.65 0 003.393 2.315 3.65 3.65 0 003.628-3.299 48.845 48.845 0 012.134 0 3.65 3.65 0 003.628 3.3 3.65 3.65 0 003.392-2.316c4.103 1.32 6.026 3.992 6.026 8.335 0 7.432-6.035 15.743-14.113 15.743zm20.249-9.172l3.164 3.628a.998.998 0 01-.096 1.406.988.988 0 01-.723.241.989.989 0 01-.683-.337l-3.157-3.618a2.675 2.675 0 001.495-1.32zm-2.312-2.183a.989.989 0 01.682.34.99.99 0 01.245.722 1 1 0 01-1.063.927l-3.174-.216c.241-.643.446-1.297.613-1.957l2.697.184zm2.252-4.144h-4.416c.002-.082-.034-1.435-.104-1.994h4.52a.998.998 0 010 1.994zm5.858 4.84a.998.998 0 01-1.41 0l-3.395-3.395a2.676 2.676 0 001.402-1.418l3.403 3.404a.998.998 0 010 1.41z"/><path d="M37.29 35.357a.832.832 0 00-1.163.176c-.205.278-.422.551-.646.811a.83.83 0 00.089 1.173.843.843 0 001.173-.089c.273-.27.494-.597.723-.908a.832.832 0 00-.176-1.163zm-2.249 2.683a.832.832 0 00-1.17-.117c-1.427 1.167-3.04 1.911-4.663 2.154-.455.067-.73.487-.7.945.05.765.903.706.945.7 1.92-.287 3.811-1.155 5.47-2.511a.831.831 0 00.118-1.17zm1.389-5.943a.837.837 0 00-.588-.244.836.836 0 00-.832.832.835.835 0 00.832.832c.22 0 .434-.089.589-.244a.838.838 0 00.243-.588.839.839 0 00-.243-.588zm-1.615-8.348a.837.837 0 00-.589-.244.837.837 0 00-.831.832.835.835 0 00.831.831c.22 0 .434-.089.59-.244a.838.838 0 00.242-.587.838.838 0 00-.243-.588zm-6.226 2.444a.837.837 0 00-.589-.244.837.837 0 00-.831.831.835.835 0 00.831.832c.22 0 .434-.089.589-.244a.838.838 0 00.243-.587.838.838 0 00-.243-.588zm2.499 9.103a.837.837 0 00-.59-.244.837.837 0 00-.831.831.835.835 0 00.832.832.84.84 0 00.589-.244.838.838 0 00.242-.587.839.839 0 00-.242-.588zm-.445-7.302a2.09 2.09 0 00-2.088 2.087 2.09 2.09 0 002.088 2.088 2.09 2.09 0 002.087-2.088 2.09 2.09 0 00-2.087-2.087zm0 2.512a.425.425 0 110-.85.425.425 0 010 .85zm-4.565.531a2.09 2.09 0 00-2.088 2.087 2.09 2.09 0 002.088 2.088 2.09 2.09 0 002.087-2.088 2.09 2.09 0 00-2.087-2.088zm0 2.511a.425.425 0 110-.85.425.425 0 010 .85zm-3.435-7.599a2.09 2.09 0 00-2.087 2.088 2.09 2.09 0 002.087 2.087 2.09 2.09 0 002.088-2.087 2.09 2.09 0 00-2.088-2.088zm0 2.512a.425.425 0 11.001-.85.425.425 0 010 .85zm15.134-2.513a2.09 2.09 0 00-2.087 2.088 2.09 2.09 0 002.087 2.088 2.09 2.09 0 002.088-2.088 2.09 2.09 0 00-2.088-2.088zm0 2.512a.425.425 0 11.001-.85.425.425 0 010 .85zM23.894 17.498a.837.837 0 00-.59-.244.837.837 0 00-.83.831.834.834 0 00.83.832c.22 0 .434-.089.59-.244a.838.838 0 00.243-.588.838.838 0 00-.243-.587zm9.39 0a.837.837 0 00-.588-.244.837.837 0 00-.832.831.835.835 0 00.832.832.837.837 0 00.588-.244.838.838 0 00.243-.588.838.838 0 00-.243-.587z"/></symbol><symbol id="icon-5-leo"><path d="M4.008 7.323a.832.832 0 00-1.03.568 6.728 6.728 0 00-.265 1.874.832.832 0 101.663 0c0-.48.067-.955.2-1.411a.832.832 0 00-.568-1.03zm32 5.001a8.277 8.277 0 00-1.343-.995.832.832 0 00-.823 1.445c.049.028.479.304 1.058.79.566.476 1.01.118 1.174-.066a.831.831 0 00-.066-1.174zm3.392 6.648c-.203-1.681-.743-3.212-1.603-4.55a.831.831 0 10-1.399.9 8.817 8.817 0 011.351 3.85c.087.804.892.73.926.726a.832.832 0 00.725-.926z"/><path d="M50.761 21.592c0-2.17-.235-4.2-.702-6.081a6.773 6.773 0 003.228-5.746 6.735 6.735 0 00-6.727-6.727c-1.511 0-2.955.5-4.132 1.418a22.408 22.408 0 00-3.107-1.781C33.733.03 28.23 0 28 0c-.232 0-5.734.03-11.32 2.675a22.416 22.416 0 00-3.11 1.782 6.717 6.717 0 00-4.13-1.419A6.732 6.732 0 004.39 5.32a.831.831 0 00.075 1.174c.158.14.732.38 1.173-.074C6.653 5.376 7.986 4.7 9.44 4.7c.977 0 1.924.282 2.736.803-.456.376-.89.768-1.303 1.178a3.382 3.382 0 00-1.433-.318 3.405 3.405 0 00-3.4 3.401c0 .926.372 1.797 1.03 2.436-.236.53-.448 1.076-.639 1.637a5.11 5.11 0 01-1.555-1.875.832.832 0 10-1.498.723 6.788 6.788 0 002.563 2.825c-.467 1.883-.703 3.916-.703 6.09.001.06.043 6.012-2.17 10.897a2.938 2.938 0 00.712 3.432c.404.368.876.608 1.371.718a26.85 26.85 0 002.186 7.128 3.217 3.217 0 002.51 1.842c-.133.508-.27.982-.412 1.415a2.856 2.856 0 00.723 2.95c.543.53 1.728 1.074 2.944.644 2.638-.931 6.163-2.92 8.56-7.093a7.142 7.142 0 002.657 1.698c-1.544 2.222-2.513 4.6-2.883 7.084a1.562 1.562 0 01-1.053 1.268 1.54 1.54 0 01-1.588-.348 11.535 11.535 0 01-1.864-2.333.832.832 0 10-1.419.868 13.196 13.196 0 002.135 2.669 3.217 3.217 0 003.276.718 3.24 3.24 0 001.509-1.079c.361.433.739.832 1.132 1.19.657.6 1.538.863 2.405.667 1.31-.297 2.008-1.647 2.03-1.699.024.052 1.054 1.763 2.587 1.755a2.747 2.747 0 001.85-.723c.392-.358.77-.757 1.132-1.19a3.238 3.238 0 002.56 1.255c.816 0 1.613-.31 2.225-.895 1.284-1.225 2.34-2.776 3.141-4.612.487.223.958.411 1.403.57.317.112 1.79.475 2.945-.644a2.85 2.85 0 00.723-2.95 24.78 24.78 0 01-.352-1.192 3.218 3.218 0 002.45-1.835 26.538 26.538 0 001.804-5.196.832.832 0 00-1.618-.382 24.867 24.867 0 01-1.691 4.87c-.348.74-1.041.955-1.573.908-.526-.046-1.164-.373-1.376-1.153-.78-2.88-1.947-5.897-3.465-8.971l.91-5.147c1.699 3.348 4.079 5.904 7.1 7.619a2.925 2.925 0 003.466-.395 2.938 2.938 0 00.71-3.432c-2.207-4.873-2.17-10.836-2.169-10.905zM46.56 4.702a5.07 5.07 0 015.065 5.063 5.1 5.1 0 01-2.056 4.072c-.19-.56-.403-1.106-.638-1.636a3.402 3.402 0 001.03-2.436 3.405 3.405 0 00-3.4-3.4c-.5 0-.987.109-1.433.317-.413-.41-.848-.803-1.304-1.179a5.042 5.042 0 012.736-.802zm1.543 5.86a17.859 17.859 0 00-1.738-2.523c.065-.007 1.833-.167 1.933 1.726.015.281-.069.554-.195.797zM9.635 8.04a17.873 17.873 0 00-1.738 2.522 1.713 1.713 0 01-.195-.797c.008-1.82 1.869-1.733 1.933-1.725zm2.911 41.02a1.166 1.166 0 01-1.227-.267 1.188 1.188 0 01-.303-1.243c.214-.657.419-1.395.61-2.197a3.203 3.203 0 001.77-2.094c.602-2.223 1.446-4.535 2.513-6.897.893 2.27 2.653 3.566 3.969 4.11.16.573.39 1.115.68 1.616-2.145 4.163-5.522 6.088-8.012 6.972zm4.298-15.777c.246-1.545 1.638-6.57 9.357-9.36a5.3 5.3 0 013.597 0c7.72 2.79 9.112 7.815 9.358 9.36 0 0-.593 6.083-5.845 6.083a5.648 5.648 0 01-3.78-1.443c1.057-.513 1.968-1.578 2.68-3.153.007-.014.376-1.046.227-1.829l.488-.742a.95.95 0 10-1.585-1.045l-.256.388a2.429 2.429 0 00-.495-.053h-.022c-.206-.004-1.851-.004-2.568-.004a604.34 604.34 0 00-2.592.004 2.416 2.416 0 00-.495.053l-.256-.388a.95.95 0 00-1.585 1.046l.49.742c-.15.782.219 1.814.225 1.828.713 1.575 1.624 2.64 2.681 3.153a5.647 5.647 0 01-3.78 1.443c-5.194 0-5.844-6.083-5.844-6.083zM28 36.612c-1.274 0-2.162-1.354-2.686-2.501-.132-.367-.165-.813-.099-.928A92.798 92.798 0 0128 33.148c1.36 0 2.768.027 2.785.035.066.115.033.563-.1.927-.523 1.147-1.41 2.502-2.685 2.502zm1.454 3.324a1.68 1.68 0 01-1.139.446h-.631c-.432 0-.835-.164-1.14-.446A7.338 7.338 0 0028 38.754c.436.46.926.855 1.454 1.182zm-7.606 1.044c1.08.104 2.4-.078 3.13-.316a3.337 3.337 0 002.706 1.38h.631a3.344 3.344 0 002.708-1.38c.728.238 1.772.42 3.129.316a5.44 5.44 0 01-4.844 3.003h-2.616a5.44 5.44 0 01-4.844-3.003zm9.466 13.061c-.26.238-.61.334-.956.265a1.086 1.086 0 01-.78-.614c-.324-.7-.582-1.483-.766-2.325a.831.831 0 00-1.624 0 11.232 11.232 0 01-.767 2.325c-.148.32-.432.544-.78.614a1.087 1.087 0 01-.956-.265 11.167 11.167 0 01-1.554-1.775c.398-2.33 1.392-4.562 2.96-6.646.199.017 1.909.263 3.817 0 1.569 2.084 2.563 4.316 2.961 6.646a11.198 11.198 0 01-1.555 1.775zm5.89-.804a1.54 1.54 0 01-1.587.348 1.562 1.562 0 01-1.054-1.269c-.37-2.484-1.339-4.862-2.883-7.084a7.142 7.142 0 002.74-1.782 15.598 15.598 0 005.597 5.607c-.72 1.68-1.664 3.084-2.812 4.18zm5.4-9.978a3.204 3.204 0 001.832 2.123c.173.702.357 1.352.548 1.937.147.45.033.915-.303 1.244-.331.322-.79.422-1.228.267-2.465-.876-5.8-2.773-7.948-6.852.26-.47.468-.975.617-1.507 1.315-.543 2.799-1.312 3.969-4.11 1.066 2.363 1.91 4.675 2.513 6.898zM41.007 22.82l-1.255 7.091c-.871-1.714-2.426-3.762-5.19-5.522 1.704.252 2.83-1 2.83-2.291a2.346 2.346 0 00-2.344-2.344 2.346 2.346 0 00-2.343 2.344c0 .598.228 1.143.598 1.558a22.434 22.434 0 00-2.94-1.299 6.968 6.968 0 00-4.727 0c-1.09.394-2.064.832-2.94 1.299.37-.415.598-.96.598-1.558a2.346 2.346 0 00-2.343-2.344 2.346 2.346 0 00-2.343 2.344c0 1.292 1.16 2.515 2.83 2.291-2.765 1.76-4.32 3.808-5.19 5.523l-1.255-7.092c-.917-7.029 2.508-10.752 4.624-12.341 1.064-.779 2.186-1.173 3.335-1.173 2.518 0 4.44 1.883 4.458 1.9a.833.833 0 00.588.245H28c.22 0 .432-.088.587-.243.02-.019 1.941-1.901 4.46-1.901 2.308 0 3.99 1.706 4 1.714 1.853 1.63 4.805 5.316 3.96 11.8zm-6.639-.723a.681.681 0 111.362.002.681.681 0 01-1.362-.002zm-12.737 0a.681.681 0 11-1.362-.001.681.681 0 011.362.001zm29.467 12.604c-.34.31-.919.52-1.524.176-3.347-1.9-5.836-4.968-7.398-9.119l.472-2.666.005-.037c.957-7.286-2.429-11.463-4.532-13.305-.003-.001-2.25-2.106-5.075-2.106-2.308 0-4.15 1.175-5.047 1.878-.896-.703-2.74-1.88-5.047-1.88-1.51 0-2.963.503-4.325 1.5-1.945 1.461-6.354 5.74-5.28 13.913a.756.756 0 00.005.037l1.904 10.759c-1.518 3.074-2.684 6.092-3.466 8.971-.211.78-.85 1.108-1.375 1.154-.53.047-1.225-.167-1.573-.908a25.161 25.161 0 01-2.026-6.543c.146-.056 4.257-2.233 6.774-6.468a.832.832 0 10-1.422-.862c-1.485 2.45-3.418 4.362-5.743 5.682-.605.344-1.184.134-1.524-.176-.343-.314-.607-.877-.317-1.518 2.363-5.217 2.32-11.343 2.318-11.592 0-8.24 3.513-14.092 10.44-17.391C22.596 1.7 27.948 1.663 28 1.663c.054 0 5.405.037 10.658 2.538 6.928 3.3 10.441 9.15 10.441 17.382-.003.258-.045 6.384 2.318 11.602.29.64.026 1.203-.318 1.517z"/></symbol><symbol id="icon-6-virgo"><g clip-path="url(#clip0)"><path d="M23.824 36.645a.831.831 0 00-.874-.388c-1.194-1.28-2.74-1.29-3.656-1.038-.916-.251-2.463-.242-3.657 1.038a.83.83 0 00-.703 1.445c-.083 1.077-.015 2.86 1.099 4.094.765.848 1.862 1.278 3.26 1.278 1.389 0 2.48-.424 3.245-1.26 1.14-1.246 1.196-3.073 1.115-4.112a.832.832 0 00.171-1.057zm-4.841.22l.294.132.32-.129c.12-.045 1-.346 1.821.247l-2.125 1.271-2.125-1.271c.822-.593 1.7-.293 1.815-.25zm2.327 3.827c-.442.483-1.102.719-2.016.719-.921 0-1.584-.239-2.026-.729-.481-.533-.644-1.312-.684-1.978l2.283 1.365a.83.83 0 00.853 0l2.285-1.367c-.04.682-.206 1.456-.695 1.99z"/><path d="M55.779 39.451a25.395 25.395 0 01-.343-1.525c-.38-1.876-.774-3.815-2.903-6.628-2.13-2.812-3.89-3.716-5.592-4.591-1.608-.826-3.126-1.607-5.027-4.117-2.029-2.68-2.412-4.278-2.856-6.129-.397-1.656-.847-3.534-2.558-6.328l-.01-.015c-1.791-2.789-3.854-5.593-6.795-7.222a.832.832 0 10-.806 1.456c2.616 1.448 4.525 4.055 6.197 6.657 1.57 2.565 1.969 4.23 2.355 5.84.467 1.948.908 3.788 3.147 6.745 2.13 2.812 3.89 3.717 5.592 4.592 1.608.826 3.126 1.606 5.027 4.117 1.9 2.51 2.24 4.183 2.6 5.954.105.521.214 1.06.364 1.623.651 2.441-.713 5.03-3.108 5.892l-9.29 3.348a4.944 4.944 0 01-6.519-3.663s-.35-3.499-2.952-6.867c-2.156-2.792-3.89-3.717-5.592-4.592-1.608-.826-3.126-1.607-5.026-4.117-1.901-2.51-2.289-4.174-2.6-5.954-.454-2.595-1.398-4.278-1.398-4.278-2.301-3.527-3.389-5.366-2.975-8.613.602-4.716 3.627-7.7 8.093-7.981a.832.832 0 00-.105-1.66c-2.573.162-4.823 1.111-6.508 2.745a9.79 9.79 0 00-1.788 2.38c-5.925 2.092-9.894 7.674-9.894 13.948v2.067A5.349 5.349 0 000 27.81a5.349 5.349 0 004.523 5.278c.01 3.594.023 6.817.04 9.59.016 2.363.974 4.632 2.77 6.563 1.602 1.72 3.796 3.07 6.176 3.801 2.81.862 6.418 1.565 10.714 1.565 5.128 0 11.235-1.002 18.133-3.929l9.271-3.34a6.608 6.608 0 003.61-3.137 6.534 6.534 0 00.541-4.75zm-51.27-8.06a3.683 3.683 0 01-2.846-3.58 3.682 3.682 0 012.845-3.582v7.162zm14.064-3.409c.404.87.965 1.822 1.784 2.903.12.159.24.311.357.458a.857.857 0 00-.006.1 1.415 1.415 0 01-2.828-.001v-2.245c0-.507.275-.964.693-1.215zm-4.575 23.47c-3.723-1.143-7.743-4.378-7.77-8.784a1228.18 1228.18 0 01-.02-3.756c2.478 4.7 7.414 7.91 13.086 7.91 4.236 0 8.281-1.837 11.1-5.042a.832.832 0 00-1.25-1.098 13.132 13.132 0 01-9.85 4.477c-7.042 0-12.806-5.576-13.109-12.545l-.013-12.146c0-5.04 2.888-9.576 7.336-11.769a13.388 13.388 0 00-.447 2.127c-.298 2.335.058 4.044.94 5.88a7.191 7.191 0 00-3.749.83c-.827.426-1.448 1.32-2.106 2.266-.33.474-.67.964-1.035 1.393a.832.832 0 00.093 1.173c.156.133.808.351 1.172-.093.41-.5.784-1.016 1.136-1.523.513-.738 1.07-1.455 1.503-1.738 1.835-1.202 3.841-.581 3.935-.574.39.647.83 1.332 1.319 2.082.709 1.39.94 2.53 1.185 3.736.141.698.285 1.405.52 2.163a3.09 3.09 0 00-1.757 2.776v2.245a3.08 3.08 0 003.077 3.078 3.08 3.08 0 002.75-1.7c1.411 1.375 2.674 2.024 3.905 2.657 1.608.827 3.17 1.574 5.026 4.117 2.273 3.113 2.65 6.197 2.65 6.197a6.606 6.606 0 004.126 4.854c-10.337 3.44-18.507 2.417-23.753.807z"/><path d="M27.204 1.87c-.604-.17-1.24-.3-1.893-.383a.83.83 0 10-.21 1.65c.57.072 1.124.188 1.649.334.53.147.923-.207 1.027-.573a.832.832 0 00-.573-1.028zm14.441 25.338a16.069 16.069 0 01-1.204-1.19.832.832 0 00-1.228 1.123c.43.47.848.947 1.329 1.312a.86.86 0 001.174-.071.832.832 0 00-.071-1.174zm8.235 6.099c-1.672-2.208-2.902-2.84-4.46-3.641a25.362 25.362 0 01-1.784-.98.831.831 0 10-.872 1.415c.682.42 1.326.752 1.895 1.044 1.477.759 2.452 1.26 3.895 3.166.163.216.71.523 1.165.161a.838.838 0 00.161-1.165zM12.487 23.008a2.703 2.703 0 00-2.7 2.7c0 1.489 1.211 2.7 2.7 2.7 1.49 0 2.7-1.211 2.7-2.7 0-1.49-1.21-2.7-2.7-2.7zm0 3.736a1.038 1.038 0 010-2.073 1.038 1.038 0 010 2.073z"/></g></symbol><symbol id="icon-7-libra"><g clip-path="url(#clip0)"><path d="M29.929 26.447a.832.832 0 00-.832.832v.998a.832.832 0 101.663 0v-.998a.831.831 0 00-.831-.832z"/><path d="M55.794 32.13a1.664 1.664 0 00-1.457-.862h-.015l-5.534-16.387c.476-.245.79-.734.797-1.301a1.473 1.473 0 00-1.263-1.483 20.206 20.206 0 00-5.801-.033c-.303.026-4.472.372-8.223-.241a.83.83 0 10-.269 1.641c4.085.668 8.478.272 8.663.255.013-.002 2.479-.302 4.093-.126-1.096.207-2.008.463-2.898.714-1.99.56-3.869 1.09-7.733 1.09-1.61 0-2.977-.091-4.246-.284l.497-2.532c.119-.604-.072-1.196-.428-1.697-.576-.812-1.839-.748-1.839-.748l-.768-2.363A1.437 1.437 0 0028 6.778c-.626 0-1.177.4-1.37.995l-.768 2.363c-2.039 0-2.063 1.063-2.138 1.237-4.077 1.2-9.885.722-10.245.69a20.219 20.219 0 00-5.801.034c-.74.112-1.27.736-1.262 1.483.005.547.299 1.02.746 1.274l-5.484 16.24h-.014a1.664 1.664 0 00-1.406 2.553L1.1 34.98a3.547 3.547 0 003.013 1.659h1.263a.832.832 0 100-1.663H4.114a1.893 1.893 0 01-1.607-.885l-.843-1.334H15.12l-.844 1.334a1.89 1.89 0 01-1.607.884H7.872a.832.832 0 000 1.664h4.798c1.23 0 2.356-.62 3.013-1.659l.844-1.333a1.663 1.663 0 00-1.406-2.553h-.015L9.813 15.418c.643.15 1.238.318 1.85.49 2.01.566 4.089 1.152 8.183 1.152 1.794 0 3.314-.11 4.735-.341.172.236.399.428.659.561v16.566a2.345 2.345 0 00-1.312 1.46l-.695 2.225a3.892 3.892 0 00.575 3.452l.819 1.114c.17.232.378.43.613.586V43.7h-2.29a2.764 2.764 0 00-2.76 2.761 2.764 2.764 0 002.76 2.76h10.1a2.764 2.764 0 002.761-2.76 2.764 2.764 0 00-2.76-2.76h-2.29v-1.02c.234-.156.443-.353.613-.585l.818-1.114a3.89 3.89 0 00.576-3.452l-.696-2.225a2.344 2.344 0 00-1.311-1.46v-3a.832.832 0 10-1.663 0v2.808h-2.195v-16.17h2.195v7.226a.832.832 0 101.663 0v-7.43a1.86 1.86 0 00.658-.561c1.421.232 2.94.341 4.735.341 4.094 0 6.173-.586 8.184-1.152a40.3 40.3 0 011.913-.504l-5.357 15.864h-.014a1.664 1.664 0 00-1.406 2.553l.843 1.333a3.547 3.547 0 003.013 1.66h8.556c1.23 0 2.356-.62 3.013-1.66l.844-1.333c.324-.512.343-1.16.05-1.692zM7.56 31.093H3.434l4.127-12.221v12.22zm5.79 0H9.224v-12.22l4.127 12.22zm6.495-15.698c-3.864 0-5.743-.529-7.733-1.09-.89-.25-1.801-.507-2.898-.714 1.744-.157 4.08.125 4.093.126.258.024 5.952.534 10.39-.613l.394 2.007c-1.27.193-2.637.284-4.246.284zM28 8.94l.389 1.197h-.778L28 8.939zm5.05 36.426c.606 0 1.098.492 1.098 1.097s-.492 1.097-1.098 1.097h-10.1a1.098 1.098 0 01-1.098-1.097c0-.605.493-1.097 1.098-1.097h3.121c.46 0 .832-.373.832-.832V43.1h2.194v1.433c0 .46.372.832.832.832h3.122zm-3.226-10.048c.304 0 .57.194.66.485l.696 2.226a2.22 2.22 0 01-.329 1.97l-.818 1.115a.796.796 0 01-.64.323h-2.787a.795.795 0 01-.639-.323l-.818-1.115a2.222 2.222 0 01-.329-1.97l.696-2.226a.688.688 0 01.66-.485h3.648zm.949-23.057l-.67 3.412a.184.184 0 01-.18.148h-3.846a.184.184 0 01-.18-.148l-.67-3.412a.38.38 0 01.08-.32.38.38 0 01.3-.141h4.787a.38.38 0 01.298.141.38.38 0 01.08.32zm17.667 6.787l4.126 12.221h-4.127V19.047zm-1.664 0v12.221H42.65l4.126-12.221zm6.717 15.218c-.35.554-.951.885-1.607.885H43.33c-.656 0-1.257-.33-1.607-.885l-.844-1.334h13.458l-.844 1.334z"/></g></symbol><symbol id="icon-8-scorpio"><path d="M4.243 13.79a.831.831 0 00-.983.644 11.909 11.909 0 00-.265 2.2.831.831 0 00.817.846c.005 0 .779 0 .845-.818.046-.56.087-1.197.23-1.89a.831.831 0 00-.644-.983z"/><path d="M53.41 30.888l-5.107-5.082a2.652 2.652 0 00-1.925-.828H40.18v-1.536l8.058-1.998a3.955 3.955 0 002.507-.367c1.247-.64 2.637-2.137 2.165-5.656-.24-1.792-.935-3.971-2.065-6.478a3.485 3.485 0 00-2.305-1.937C47.545 4.968 45.5 1.555 42.453.17a1.826 1.826 0 00-2.1.405 1.817 1.817 0 00-.307 2.107l.925 1.81a1.469 1.469 0 00-.907-.075 1.46 1.46 0 00-1.14 1.391c-.04 1.238.199 3.234 1.557 5.726-.2.859-.07 1.744.372 2.515.214.372.427.729.64 1.073l-2.705.67a17.577 17.577 0 00-2.102-3.583c-2.425-3.18-5.51-4.932-8.686-4.932-3.177 0-6.262 1.751-8.687 4.932a17.575 17.575 0 00-2.102 3.584l-2.704-.671c.213-.345.426-.701.639-1.073a3.444 3.444 0 00.372-2.515c1.358-2.492 1.597-4.488 1.557-5.726a1.46 1.46 0 00-1.14-1.39 1.468 1.468 0 00-.906.074l.925-1.81a1.817 1.817 0 00-.307-2.107 1.826 1.826 0 00-2.1-.405C10.501 1.555 8.455 4.966 7.46 7.004c-.096.025-1.41-.053-2.306 1.94A34.964 34.964 0 003.96 11.93a.831.831 0 101.573.539A33.06 33.06 0 016.67 9.627a1.8 1.8 0 011.055-.967 1.804 1.804 0 011.43.096l3.8 1.941c.447.23.773.621.916 1.103a1.8 1.8 0 01-.166 1.421c-1.71 2.976-4.982 7.76-7.693 6.375a2.19 2.19 0 01-.98-.966.831.831 0 10-1.475.769 3.852 3.852 0 001.698 1.678c.479.244 1.424.431 2.493.363l8.072 2.002v1.532H9.623c-1.41 0-1.928.807-1.928.807l-5.103 5.103a2.64 2.64 0 00-.777 1.88c0 .712.276 1.38.776 1.88.501.501 1.17.777 1.88.777a2.64 2.64 0 001.881-.777l4.352-4.351h5.116s.017 1.048.048 1.418h-2.694c-1.248 0-1.928.807-1.928.807L6.143 37.62a2.662 2.662 0 000 3.76c.5.5 1.168.777 1.88.777s1.38-.276 1.88-.777l4.352-4.352h3.043c.221.49.465.972.731 1.441h-1.055c-1.446 0-1.929.807-1.929.807L9.942 44.38a2.64 2.64 0 00-.777 1.88 2.65 2.65 0 002.657 2.658c.681 0 1.362-.26 1.88-.778l4.327-4.326-.025-.026h4.889c1.61 1.025 3.344 1.565 5.108 1.565.655 0 1.307-.075 1.95-.222.098.531.26 1.04.48 1.518l-3.513 1.633c-.3-.646-.538-1.33-.7-2.044a.832.832 0 00-1.622.37c.596 2.618 2.084 5 4.19 6.705A12.062 12.062 0 0036.354 56C43 56 48.408 50.592 48.408 43.945v-1.817a2.642 2.642 0 001.45-.743 2.662 2.662 0 000-3.76l-.506-.507c-.11-1.119-.441-2.457-1.188-3.955l1.485 1.485c.5.501 1.168.777 1.88.777a2.64 2.64 0 001.88-.776 2.641 2.641 0 00.777-1.88 2.64 2.64 0 00-.777-1.881zM15.391 6.653c-.07.822-.3 1.883-.864 3.141a3.473 3.473 0 00-.574-.44l1.438-2.7zm-4.028 1.364l-1.452-.741a3.534 3.534 0 00-.6-.24c.977-1.83 2.651-4.32 4.923-5.352a.167.167 0 01.21.04c.086.09.044.17.029.2l-3.11 6.093zM5.176 33.47a.989.989 0 01-.704.29.988.988 0 01-.994-.995c0-.267.103-.517.29-.704l3.401-3.402c.266.634.77 1.144 1.401 1.417L5.176 33.47zm10.644-4.84H9.623a.998.998 0 010-1.993h6.197v1.993zm.004-6.9l-5.674-1.407c.31-.229 2.33-1.77 3.394-3.727l3.068.76c-.481 1.462-.755 2.951-.788 4.374zM8.728 40.206a.998.998 0 01-1.41-1.41l3.402-3.402c.266.635.77 1.145 1.401 1.418l-3.393 3.394zm4.446-4.839a.997.997 0 010-1.993h2.934c.134.665.313 1.332.535 1.993h-3.469zm33.204-8.726a.998.998 0 010 1.993H40.18v-1.993h6.197zm-1.746 3.656a1.48 1.48 0 00-.664.978c-.035.188-.086.4-.16.63a2.646 2.646 0 00-.981-.19h-2.695c.032-.372.049-1.418.049-1.418h4.451zm3.04-21.74c.714 0 1.366.42 1.659 1.07 1.41 3.128 3.37 8.583.658 9.97-.334.17-.667.253-1.019.253-1.849 0-4.219-2.354-6.674-6.629a1.8 1.8 0 01-.166-1.42c.143-.483.469-.875.917-1.104l3.798-1.94c.26-.133.538-.2.827-.2zm-6.116-6.834c.09-.094.18-.053.21-.04 2.272 1.034 3.947 3.524 4.924 5.354-.207.06-.409.14-.601.239l-1.451.741c-.94-1.841-2.23-4.37-3.111-6.092a.159.159 0 01.029-.202zm-.083 8.071c-.564-1.258-.794-2.32-.864-3.14l1.438 2.7c-.208.128-.4.276-.574.44zm.982 6.802c1.156 1.663 2.29 2.906 3.397 3.727l-5.675 1.407c-.032-1.423-.307-2.912-.788-4.373l3.066-.76zm-2.562 16.782h2.934c.097 0 .192.015.283.042a11.288 11.288 0 01-1.51 1.95h-2.243c.222-.66.401-1.328.536-1.992zm1.31 9.281v1.286c0 .238-.018.472-.051.701l-1.072-1.071a2.677 2.677 0 001.123-.916zm-.688-5.626a4.552 4.552 0 00-.324 1.652l.002.058a2.643 2.643 0 00-1.165-.27H37.97c.266-.468.51-.95.732-1.44h1.813zm-.491 4.1c0 .55-.447.997-.997.997h-3.845c.524-.513 1.647-1.898 1.716-1.993h2.13c.549 0 .996.447.996.996zM33.71 14.17a1.982 1.982 0 01-1.98 1.981 1.983 1.983 0 01-1.981-1.98c0-1.093.889-1.981 1.98-1.981 1.093 0 1.982.888 1.982 1.98zm-9.745-1.98c1.092 0 1.98.888 1.98 1.98a1.982 1.982 0 01-1.98 1.981 1.983 1.983 0 01-1.981-1.98c0-1.093.888-1.981 1.98-1.981zm9.155 10.02H17.483s-.126-5.227 2.888-8.631a3.648 3.648 0 003.595 4.235 3.648 3.648 0 003.643-3.644 3.648 3.648 0 00-4.334-3.577C24.765 9.512 26.377 8.94 28 8.94c1.685 0 3.358.618 4.895 1.78a3.648 3.648 0 00-4.809 3.451 3.648 3.648 0 003.644 3.643 3.648 3.648 0 003.438-4.847c3.249 3.85 3.35 9.218 3.35 9.218h-2.965a.831.831 0 000 1.662h2.964v6.438H17.483v-6.412H33.12a.831.831 0 000-1.662zM12.527 46.966a.998.998 0 01-1.41 0 .989.989 0 01-.289-.705c0-.267.103-.518.29-.704l3.402-3.402c.266.634.77 1.144 1.4 1.417l-3.393 3.394zm4.447-4.839a.997.997 0 010-1.993H19.1c.07.097 1.192 1.481 1.715 1.993h-3.841zM28 43.691c-2.646 0-5.262-1.52-7.364-4.278a15.29 15.29 0 01-.475-.66h.991a.831.831 0 000-1.662H19.17c-.854-1.651-1.413-3.432-1.61-5.144h20.88c-.196 1.712-.756 3.493-1.609 5.144H23.573a.831.831 0 000 1.663H35.84c-.153.224-.31.444-.475.66-2.102 2.758-4.717 4.277-7.363 4.277zm4.688 9.963a10.576 10.576 0 01-4.947-3.921l3.575-1.663a6.542 6.542 0 002.637 1.928l-1.265 3.656zm3.664.683c-.703 0-1.395-.075-2.067-.214l1.285-3.714a6.472 6.472 0 003.57-.58l1.38 3.635a10.334 10.334 0 01-4.168.873zm0-5.542a4.857 4.857 0 01-4.803-4.183 10.665 10.665 0 001.552-.82h4.895l-.025.026 2.57 2.569a4.852 4.852 0 01-4.189 2.408zm5.644 3.872l-1.429-3.763a6.54 6.54 0 001.827-2.533l3.423 1.863a10.463 10.463 0 01-3.82 4.433zm4.749-8.722c0 .936-.126 1.843-.358 2.706l-3.568-1.942c.03-.25.046-.505.046-.764v-1.089c.584.27 1.233.421 1.917.421.726 0 1.382-.14 1.963-.416v1.084zm.966-5.39v.014c-.014.17-.292 3.045-2.93 3.045a2.932 2.932 0 01-2.928-2.929c0-.87.446-1.643.864-2.076 1.773-1.84 2.503-3.472 2.795-4.62 2.017 2.819 2.315 5.115 2.2 6.565zm4.522-5.082a.989.989 0 01-.705.29.989.989 0 01-.704-.29l-3.394-3.394a2.675 2.675 0 001.4-1.418l3.403 3.402a.99.99 0 01.29.705.99.99 0 01-.29.705z"/><path d="M24.554 13.582a.837.837 0 00-.588-.244.836.836 0 00-.832.832.834.834 0 00.832.83c.22 0 .433-.088.588-.243a.838.838 0 00.243-.587.838.838 0 00-.243-.588zm7.766 0a.837.837 0 00-.59-.244.836.836 0 00-.83.832.834.834 0 00.83.83.84.84 0 00.59-.243.838.838 0 00.242-.587.838.838 0 00-.243-.588z"/></symbol><symbol id="icon-9-sagittarius"><g clip-path="url(#clip0)"><path d="M22.21 10.053c-.324-.293-.65-.58-.97-.854a.832.832 0 00-1.082 1.263c.308.265.624.542.938.825.159.144.657.375 1.174-.06.352-.295.281-.866-.06-1.174z"/><path d="M55.59 48.042c-1.641-2.132-2.61-3.861-3.636-5.692-1.667-2.973-3.39-6.048-8.113-10.77-2.22-2.22-4.215-3.928-6.26-5.357a3.022 3.022 0 00-.866-1.77l-1.246-1.246 1.175-1.174c.138.018.8.145 1.593-.202l.649 1.453c.31.698.978 1.13 1.741 1.13.794 0 1.493-.477 1.78-1.216l4.524-11.641a1.878 1.878 0 00-.2-1.764 1.91 1.91 0 00-1.574-.838c-.236 0-.47.044-.696.132L32.82 13.611c-.72.28-1.198.96-1.217 1.731a1.903 1.903 0 001.13 1.79l1.454.649a3.121 3.121 0 00-.19 1.67l-1.142 1.142-1.29-1.29a3.033 3.033 0 00-1.771-.868C28 15.506 24.171 11.91 24.039 11.78a.832.832 0 10-1.167 1.186c.129.126 3.316 3.15 5.11 5.795a3.13 3.13 0 00-.733.54l-2.6 2.602C21.002 15.207 13.293 8.765 12.952 8.482a31.146 31.146 0 01-6.34-6.398c-.034-.047-.126-.172.026-.321.152-.15.28-.05.323-.018 2.227 1.716 4.09 2.76 5.893 3.77 1.76.986 3.423 1.918 5.445 3.449a.831.831 0 101.004-1.327c-2.114-1.6-3.904-2.603-5.636-3.573-1.83-1.026-3.56-1.995-5.691-3.637a1.873 1.873 0 00-2.502.147 1.872 1.872 0 00-.2 2.496c.342.465.696.92 1.063 1.365v38.084a2.4 2.4 0 00-1.23.654L.7 47.578a2.372 2.372 0 00-.572 2.456c.294.867 1.23 1.742 2.296 1.57l2.904-.867-.911 2.84a.833.833 0 00-.033.362c.12.908.732 1.655 1.6 1.95.254.086 1.542.322 2.455-.573l4.405-4.405c.322-.322.54-.728.639-1.164h38.18c.42.343.847.676 1.283.997.35.258.747.384 1.14.384a1.89 1.89 0 001.356-.585 1.873 1.873 0 00.147-2.501zM35.54 25.629c.26.26.403.61.403.982s-.143.72-.404.98l-2.954 2.955c-.26.26-.609.404-.981.404-.373 0-.721-.144-.981-.404L29.376 29.3l4.917-4.917 1.246 1.246zm.5-5.652a1.442 1.442 0 01-.331-1.517l1.278.57.571 1.279a1.442 1.442 0 01-1.517-.332zm-2.629-4.364a.23.23 0 01-.145-.23.23.23 0 01.157-.222l11.64-4.524c.033-.013.209-.068.29.018.115.12.039.27.027.3l-4.524 11.64a.23.23 0 01-.229.156.23.23 0 01-.223-.145l-1.794-4.022 2.242-2.243a.832.832 0 10-1.176-1.176l-2.242 2.243-4.023-1.795zm1.347 5.429c.035.038.211.211.265.258l-27.6 27.601c-.04.04-.173.117-.277.013-.104-.104-.038-.222.015-.275l27.597-27.597zm-9.287 2.39l2.955-2.954a1.39 1.39 0 011.962 0l1.29 1.291-4.916 4.917-1.29-1.29a1.377 1.377 0 01-.404-.982c0-.373.143-.721.403-.981zM8 6.306a33.123 33.123 0 003.903 3.468c.383.321 8.44 7.125 11.664 13.654a3.067 3.067 0 00-.163.987c0 .817.317 1.583.891 2.157l1.291 1.291L10.459 42.99l-2.46-.363V6.305zM5.455 48.964l-3.305.987a.709.709 0 01-.446-.453.705.705 0 01.173-.744l4.406-4.405a.726.726 0 01.617-.204l2.094.309-3.01 3.01c-.424.424-.608.956-.53 1.5zm7.947-.88l-.04-.269a.832.832 0 00-1.646.244l.157 1.059a.726.726 0 01-.204.617l-4.406 4.406a.705.705 0 01-.744.173.71.71 0 01-.45-.44l1.05-3.271c.063.006.719.236 1.48-.526L28.2 30.476l1.247 1.246a3.068 3.068 0 003.144.729c6.523 3.221 13.332 11.28 13.654 11.663a33.113 33.113 0 003.536 3.97h-36.38zm40.853 1.296c-.149.152-.274.06-.322.025-3.682-2.702-6.39-6.33-6.397-6.34-.286-.344-6.728-8.05-13.422-11.696l2.601-2.601c.22-.219.4-.466.541-.733 1.75 1.281 3.49 2.8 5.41 4.72 4.56 4.56 6.151 7.401 7.837 10.409 1.01 1.802 2.054 3.665 3.77 5.893.032.042.131.17-.019.323z"/></g></symbol></svg>